<?xml version="1.0" encoding="UTF-8"?>
<!DOCTYPE svg PUBLIC "-//W3C//DTD SVG 1.1//EN" "http://www.w3.org/Graphics/SVG/1.1/DTD/svg11.dtd">
<!-- Creator: CorelDRAW -->
<svg xmlns="http://www.w3.org/2000/svg" xml:space="preserve" width="4in" height="4in" version="1.1" style="shape-rendering:geometricPrecision; text-rendering:geometricPrecision; image-rendering:optimizeQuality; fill-rule:evenodd; clip-rule:evenodd"
viewBox="0 0 4000 4000"
 xmlns:xlink="http://www.w3.org/1999/xlink"
 xmlns:xodm="http://www.corel.com/coreldraw/odm/2003">
 <defs>
  <style type="text/css">
   <![CDATA[
    .fil0 {fill:#731F17}
   ]]>
  </style>
 </defs>
 <g id="Layer_x0020_1">
  <metadata id="CorelCorpID_0Corel-Layer"/>
  <g>
   <path class="fil0" d="M1600 2150c27.61,0 50,-22.39 50,-50 0,-27.61 -22.39,-50 -50,-50l-250 0 0 -100 250 0c27.61,0 50,-22.39 50,-50 0,-27.61 -22.39,-50 -50,-50l-250 0 0 -100 250 0c82.84,0 150,67.16 150,150 0,38.42 -14.44,73.46 -38.19,100 23.75,26.54 38.19,61.58 38.19,100 0,82.84 -67.16,150 -150,150l-250 0 0 -100 250 0 0 0zm200 -400l300 0 0 100 -300 0 0 -100zm0 200l300 0 0 100 -300 0 0 -100zm0 200l300 0 0 100 -300 0 0 -100zm600 -400c138.07,0 250,111.93 250,250 0,138.07 -111.93,250 -250,250 -138.07,0 -250,-111.93 -250,-250 0,-138.07 111.93,-250 250,-250zm0 100c82.84,0 150,67.15 150,150 0,82.84 -67.15,150 -150,150 -82.84,0 -150,-67.15 -150,-150 0,-82.84 67.15,-150 150,-150z"/>
  </g>
 </g>
</svg>
