<?xml version="1.0" encoding="UTF-8"?>
<!DOCTYPE svg PUBLIC "-//W3C//DTD SVG 1.1//EN" "http://www.w3.org/Graphics/SVG/1.1/DTD/svg11.dtd">
<!-- Creator: CorelDRAW -->
<svg xmlns="http://www.w3.org/2000/svg" xml:space="preserve" width="4in" height="4in" version="1.1" style="shape-rendering:geometricPrecision; text-rendering:geometricPrecision; image-rendering:optimizeQuality; fill-rule:evenodd; clip-rule:evenodd"
viewBox="0 0 4000 4000"
 xmlns:xlink="http://www.w3.org/1999/xlink"
 xmlns:xodm="http://www.corel.com/coreldraw/odm/2003">
 <defs>
  <style type="text/css">
   <![CDATA[
    .fil1 {fill:#731F17}
    .fil0 {fill:#190705;fill-rule:nonzero}
   ]]>
  </style>
 </defs>
 <g id="Layer_x0020_1">
  <metadata id="CorelCorpID_0Corel-Layer"/>
  <g id="_2823693194976">
   <g>
    <path class="fil0" d="M2352.06 1812.13c6.73,-5.84 10.8,-13.98 10.8,-24.25 0,-21.42 -17.52,-35.4 -39.12,-35.4l-48.5 0 0 123.9 52.04 0c22.13,0 40,-14.34 40,-36.28 0,-12.57 -6.02,-22.13 -15.22,-27.97zm-28.32 -33.1c6.55,0 10.8,4.6 10.8,10.97 0,6.37 -4.43,10.98 -10.8,10.98l-20.18 0 0 -21.95 20.18 0zm3.54 70.8l-23.72 0 0 -23.72 23.72 0c7.08,0 11.68,4.96 11.68,11.86 0,6.9 -4.6,11.86 -11.68,11.86zm82.48 -0.71l0 -96.64 -28.32 0 0 123.9 72.57 0 0 -27.26 -44.25 0zm84.96 0l0 -21.94 44.25 0 0 -26.91 -44.25 0 0 -20.53 48.67 0 0 -27.26 -77 0 0 123.9 77.88 0 0 -27.26 -49.56 0zm108.85 29.74c26.91,0 46.02,-14.16 46.02,-38.06 0,-26.19 -21.06,-32.74 -39.82,-38.41 -19.3,-5.84 -22.3,-9.74 -22.3,-15.4 0,-4.96 4.43,-9.38 13.28,-9.38 11.33,0 17.17,5.49 21.42,14.34l23.89 -13.98c-9.03,-18.23 -24.96,-27.96 -45.31,-27.96 -21.42,0 -41.59,13.81 -41.59,37.7 0,23.72 18.05,32.57 36.46,37.7 18.59,5.13 25.67,8.14 25.67,15.75 0,4.78 -3.36,10.09 -16.81,10.09 -13.98,0 -21.59,-6.9 -26.02,-17.17l-24.43 14.16c6.9,18.23 23.54,30.62 49.56,30.62zm103.54 0c26.91,0 46.02,-14.16 46.02,-38.06 0,-26.19 -21.06,-32.74 -39.82,-38.41 -19.3,-5.84 -22.3,-9.74 -22.3,-15.4 0,-4.96 4.43,-9.38 13.28,-9.38 11.33,0 17.17,5.49 21.42,14.34l23.89 -13.98c-9.03,-18.23 -24.96,-27.96 -45.31,-27.96 -21.42,0 -41.59,13.81 -41.59,37.7 0,23.72 18.05,32.57 36.46,37.7 18.59,5.13 25.67,8.14 25.67,15.75 0,4.78 -3.36,10.09 -16.81,10.09 -13.98,0 -21.59,-6.9 -26.02,-17.17l-24.43 14.16c6.9,18.23 23.54,30.62 49.56,30.62zm88.5 -29.74l0 -21.94 44.25 0 0 -26.91 -44.25 0 0 -20.53 48.67 0 0 -27.26 -77 0 0 123.9 77.88 0 0 -27.26 -49.56 0zm115.05 -96.64l-49.56 0 0 123.9 49.56 0c34.16,0 60.18,-26.91 60.18,-61.95 0,-35.05 -26.02,-61.95 -60.18,-61.95zm0 96.64l-21.24 0 0 -69.38 21.24 0c19.47,0 32.92,13.45 32.92,34.69 0,21.24 -13.45,34.69 -32.92,34.69z"/>
    <path class="fil0" d="M2303.56 2034.69l0 -21.94 44.25 0 0 -26.91 -44.25 0 0 -20.53 48.67 0 0 -27.26 -77 0 0 123.9 77.88 0 0 -27.26 -49.56 0zm189.39 -96.64l-28.32 0 -33.63 55.05 -33.63 -55.05 -28.32 0 0 123.9 28.32 0 0 -72.04 32.04 52.57 3.19 0 32.04 -52.57 0 72.04 28.32 0 0 -123.9zm49.56 96.64l0 -21.94 44.25 0 0 -26.91 -44.25 0 0 -20.53 48.67 0 0 -27.26 -77 0 0 123.9 77.88 0 0 -27.26 -49.56 0zm124.61 29.74c35.58,0 64.43,-27.96 64.43,-64.43 0,-36.46 -28.85,-64.43 -64.43,-64.43 -35.57,0 -64.43,27.96 -64.43,64.43 0,36.46 28.85,64.43 64.43,64.43zm0 -27.61c-20.18,0 -36.11,-14.69 -36.11,-36.81 0,-22.13 15.93,-36.82 36.11,-36.82 20.18,0 36.11,14.69 36.11,36.82 0,22.12 -15.93,36.81 -36.11,36.81zm155.59 -71.51l0 -27.26 -75.23 0 0 123.9 28.32 0 0 -45.49 46.02 0 0 -27.26 -46.02 0 0 -23.89 46.91 0zm45.13 69.38l0 -21.94 44.25 0 0 -26.91 -44.25 0 0 -20.53 48.67 0 0 -27.26 -77 0 0 123.9 77.88 0 0 -27.26 -49.56 0z"/>
    <path class="fil0" d="M2339.67 2250c35.58,0 64.43,-27.96 64.43,-64.43 0,-36.46 -28.85,-64.43 -64.43,-64.43 -35.57,0 -64.43,27.96 -64.43,64.43 0,36.46 28.85,64.43 64.43,64.43zm0 -27.61c-20.18,0 -36.11,-14.69 -36.11,-36.81 0,-22.13 15.93,-36.82 36.11,-36.82 20.18,0 36.11,14.69 36.11,36.82 0,22.12 -15.93,36.81 -36.11,36.81zm149.39 -98.77l0 67.26 -47.79 -67.26 -21.24 0 0 123.9 28.32 0 0 -67.26 47.79 67.26 21.24 0 0 -123.9 -28.32 0zm108.68 126.38c35.58,0 64.43,-27.96 64.43,-64.43 0,-36.46 -28.85,-64.43 -64.43,-64.43 -35.57,0 -64.43,27.96 -64.43,64.43 0,36.46 28.85,64.43 64.43,64.43zm0 -27.61c-20.18,0 -36.11,-14.69 -36.11,-36.81 0,-22.13 15.93,-36.82 36.11,-36.82 20.18,0 36.11,14.69 36.11,36.82 0,22.12 -15.93,36.81 -36.11,36.81zm145.5 25.13l30.44 0 -26.37 -45.49c13.63,-6.91 22.83,-20.71 22.83,-35.93 0,-23.54 -18.94,-42.48 -42.48,-42.48l-49.56 0 0 123.9 28.32 0 0 -40.71 13.45 0 23.36 40.71zm-36.81 -97.35l21.24 0c7.79,0 14.16,6.9 14.16,15.93 0,9.03 -6.37,15.93 -14.16,15.93l-21.24 0 0 -31.86zm80.53 -26.55l0 123.9 28.32 0 0 -123.9 -28.32 0zm108.68 126.38c35.58,0 64.43,-27.96 64.43,-64.43 0,-36.46 -28.85,-64.43 -64.43,-64.43 -35.57,0 -64.43,27.96 -64.43,64.43 0,36.46 28.85,64.43 64.43,64.43zm0 -27.61c-20.18,0 -36.11,-14.69 -36.11,-36.81 0,-22.13 15.93,-36.82 36.11,-36.82 20.18,0 36.11,14.69 36.11,36.82 0,22.12 -15.93,36.81 -36.11,36.81zm129.92 -98.77l-49.56 0 0 123.9 49.56 0c34.16,0 60.18,-26.91 60.18,-61.95 0,-35.05 -26.02,-61.95 -60.18,-61.95zm0 96.64l-21.24 0 0 -69.38 21.24 0c19.47,0 32.92,13.45 32.92,34.69 0,21.24 -13.45,34.69 -32.92,34.69zm104.43 0l0 -21.94 44.25 0 0 -26.91 -44.25 0 0 -20.53 48.67 0 0 -27.26 -77 0 0 123.9 77.88 0 0 -27.26 -49.56 0z"/>
   </g>
   <g>
    <path class="fil1" d="M1070.47 2150c27.61,0 50,-22.39 50,-50 0,-27.61 -22.39,-50 -50,-50l-250 0 0 -100 250 0c27.61,0 50,-22.39 50,-50 0,-27.61 -22.39,-50 -50,-50l-250 0 0 -100 250 0c82.84,0 150,67.16 150,150 0,38.42 -14.44,73.46 -38.19,100 23.75,26.54 38.19,61.58 38.19,100 0,82.84 -67.16,150 -150,150l-250 0 0 -100 250 0 0 0zm200 -400l300 0 0 100 -300 0 0 -100zm0 200l300 0 0 100 -300 0 0 -100zm0 200l300 0 0 100 -300 0 0 -100zm600 -400c138.07,0 250,111.93 250,250 0,138.07 -111.93,250 -250,250 -138.07,0 -250,-111.93 -250,-250 0,-138.07 111.93,-250 250,-250zm0 100c82.84,0 150,67.15 150,150 0,82.84 -67.15,150 -150,150 -82.84,0 -150,-67.15 -150,-150 0,-82.84 67.15,-150 150,-150z"/>
   </g>
  </g>
 </g>
</svg>
