<svg xmlns="http://www.w3.org/2000/svg" width="179" height="49" viewBox="0 0 179 49" fill="none"><path d="M33.2024 0H17.0268C7.62317 0 0 7.43663 0 16.6102V32.3899C0 41.5634 7.62317 49 17.0268 49H33.2024C42.606 49 50.2292 41.5634 50.2292 32.3899V16.6102C50.2292 7.43663 42.606 0 33.2024 0Z" fill="#FF0000"></path><path fill-rule="evenodd" clip-rule="evenodd" d="M22.7626 8.59906C22.7626 8.65213 22.7431 8.65499 22.3832 8.65499C22.0234 8.65499 22.0039 8.65786 22.0039 8.71109C22.0039 8.76399 21.9845 8.76716 21.6538 8.76716C21.3232 8.76716 21.3039 8.77019 21.3039 8.82309C21.3039 8.87445 21.2844 8.8792 21.0703 8.8792C20.8564 8.8792 20.8371 8.88378 20.8371 8.93513C20.8371 8.98547 20.8176 8.99121 20.6474 8.99121C20.4772 8.99121 20.4577 8.99695 20.4577 9.0473C20.4577 9.09865 20.4382 9.10325 20.2243 9.10325C19.9918 9.10325 19.9911 9.10353 19.9911 9.17682C19.9911 9.24351 19.9828 9.24883 19.9033 9.23348C19.768 9.20751 19.6408 9.24122 19.6408 9.30289C19.6408 9.3465 19.6183 9.35539 19.5095 9.35539C19.3977 9.35539 19.3783 9.36372 19.3783 9.41148C19.3783 9.46125 19.3588 9.46742 19.2029 9.46742C19.0476 9.46742 19.028 9.47372 19.028 9.52349C19.028 9.57011 19.0085 9.5796 18.9114 9.5796C18.814 9.5796 18.7947 9.58891 18.7947 9.63553C18.7947 9.68229 18.7753 9.6916 18.678 9.6916C18.5808 9.6916 18.5612 9.70093 18.5612 9.74755C18.5612 9.78498 18.5417 9.80362 18.5029 9.80362C18.4641 9.80362 18.4446 9.82229 18.4446 9.85972C18.4446 9.90634 18.4252 9.91565 18.3279 9.91565C18.2305 9.91565 18.2112 9.92498 18.2112 9.97174C18.2112 10.0195 18.1918 10.0278 18.0798 10.0278C17.968 10.0278 17.9485 10.036 17.9485 10.0838C17.9485 10.1305 17.9292 10.1398 17.832 10.1398C17.7348 10.1398 17.7151 10.1492 17.7151 10.1958C17.7151 10.2425 17.6957 10.2519 17.5986 10.2519C17.5012 10.2519 17.4818 10.2612 17.4818 10.3079C17.4818 10.3453 17.4624 10.3639 17.4234 10.3639C17.3808 10.3639 17.3652 10.3827 17.3652 10.434C17.3652 10.497 17.3534 10.504 17.2483 10.504C17.1512 10.504 17.1318 10.5134 17.1318 10.5601C17.1318 10.6067 17.1123 10.6161 17.015 10.6161C16.9177 10.6161 16.8983 10.6254 16.8983 10.6721C16.8983 10.7132 16.8788 10.7281 16.8253 10.7281C16.7718 10.7281 16.7524 10.7431 16.7524 10.7842C16.7524 10.8309 16.733 10.8402 16.6358 10.8402C16.5385 10.8402 16.5191 10.8496 16.5191 10.8962C16.5191 10.946 16.4995 10.9523 16.344 10.9523C16.1884 10.9523 16.1689 10.9584 16.1689 11.0084C16.1689 11.0456 16.1495 11.0643 16.1105 11.0643C16.0717 11.0643 16.0523 11.0829 16.0523 11.1204C16.0523 11.1577 16.0327 11.1763 15.9939 11.1763C15.9549 11.1763 15.9355 11.1951 15.9355 11.2324C15.9355 11.2734 15.916 11.2885 15.8626 11.2885C15.8091 11.2885 15.7897 11.3034 15.7897 11.3444C15.7897 11.39 15.7701 11.4005 15.6848 11.4005C15.6062 11.4005 15.5764 11.4138 15.5655 11.4539C15.5574 11.4833 15.5257 11.5137 15.4952 11.5213C15.4628 11.5294 15.4395 11.5598 15.4395 11.594C15.4395 11.6339 15.421 11.6526 15.3811 11.6526C15.349 11.6526 15.3229 11.67 15.3229 11.6914C15.3229 11.7126 15.2966 11.7367 15.2645 11.7448C15.2324 11.7528 15.2061 11.7785 15.2061 11.8016C15.2061 11.8289 15.1651 11.8505 15.0894 11.8628C15.0008 11.8771 14.9727 11.8945 14.9727 11.9352C14.9727 11.9701 14.9524 11.9887 14.9143 11.9887C14.8755 11.9887 14.8561 12.0075 14.8561 12.0448C14.8561 12.0821 14.8365 12.1009 14.7977 12.1009C14.7588 12.1009 14.7393 12.1195 14.7393 12.1568C14.7393 12.1943 14.7198 12.2129 14.681 12.2129C14.642 12.2129 14.6226 12.2316 14.6226 12.269C14.6226 12.3063 14.6032 12.3249 14.5643 12.3249C14.5253 12.3249 14.5059 12.3436 14.5059 12.381C14.5059 12.4192 14.4865 12.437 14.4448 12.437C14.4093 12.437 14.3776 12.4593 14.3693 12.4905C14.3612 12.5199 14.3297 12.5501 14.299 12.5579C14.2684 12.5656 14.2433 12.5919 14.2433 12.6165C14.2433 12.6425 14.219 12.6612 14.1851 12.6612C14.1461 12.6612 14.1267 12.6798 14.1267 12.7172C14.1267 12.7545 14.1072 12.7732 14.0683 12.7732C14.0248 12.7732 14.01 12.7918 14.01 12.8465C14.01 12.906 13.9989 12.9171 13.9516 12.9052C13.9051 12.8935 13.8932 12.9043 13.8932 12.9579C13.8932 13.0067 13.8771 13.0253 13.8349 13.0253C13.7959 13.0253 13.7765 13.044 13.7765 13.0814C13.7765 13.1187 13.7571 13.1374 13.7183 13.1374C13.6696 13.1374 13.6598 13.156 13.6598 13.2495C13.6598 13.3429 13.6501 13.3616 13.6014 13.3616C13.5529 13.3616 13.5432 13.3802 13.5432 13.4736C13.5432 13.567 13.5335 13.5856 13.4848 13.5856C13.446 13.5856 13.4264 13.6042 13.4264 13.6417C13.4264 13.679 13.407 13.6978 13.3681 13.6978C13.3291 13.6978 13.3097 13.7164 13.3097 13.7537C13.3097 13.7911 13.2903 13.8098 13.2515 13.8098C13.2132 13.8098 13.1931 13.8284 13.1931 13.8639C13.1931 13.8986 13.1696 13.9211 13.1273 13.9268C13.0728 13.9343 13.0603 13.9559 13.0528 14.0549C13.0455 14.1512 13.0329 14.174 12.9871 14.174C12.9499 14.174 12.9305 14.1932 12.9305 14.2299C12.9305 14.2673 12.911 14.286 12.8721 14.286C12.8332 14.286 12.8138 14.3047 12.8138 14.3421C12.8138 14.3794 12.7944 14.398 12.7554 14.398C12.7068 14.398 12.6971 14.4168 12.6971 14.5102C12.6971 14.6036 12.6873 14.6222 12.6387 14.6222C12.5999 14.6222 12.5803 14.6409 12.5803 14.6782C12.5803 14.7156 12.5609 14.7342 12.522 14.7342C12.4734 14.7342 12.4636 14.7529 12.4636 14.8463C12.4636 14.9396 12.454 14.9584 12.4052 14.9584C12.3664 14.9584 12.347 14.9771 12.347 15.0144C12.347 15.0518 12.3276 15.0705 12.2886 15.0705C12.2397 15.0705 12.2303 15.0891 12.2303 15.1851C12.2303 15.2763 12.2182 15.3028 12.1719 15.3144C12.1277 15.3255 12.1135 15.3526 12.1135 15.4265C12.1135 15.5003 12.0995 15.5274 12.0553 15.5386C12.0228 15.5467 11.9969 15.5768 11.9969 15.606C11.9969 15.64 11.9762 15.6587 11.9384 15.6587C11.8996 15.6587 11.8802 15.6775 11.8802 15.7148C11.8802 15.7558 11.8608 15.7708 11.8073 15.7708C11.7415 15.7708 11.7342 15.782 11.7342 15.8829C11.7342 15.9763 11.7245 15.9949 11.676 15.9949C11.6273 15.9949 11.6176 16.0135 11.6176 16.1069C11.6176 16.2003 11.6079 16.2191 11.5592 16.2191C11.5096 16.2191 11.5009 16.2377 11.5009 16.3452C11.5009 16.4524 11.4922 16.4711 11.4425 16.4711C11.394 16.4711 11.3843 16.4898 11.3843 16.5832C11.3843 16.6766 11.3744 16.6953 11.3258 16.6953C11.274 16.6953 11.2674 16.7139 11.2674 16.8633C11.2674 17.0128 11.261 17.0315 11.2092 17.0315C11.1605 17.0315 11.1508 17.0501 11.1508 17.1435C11.1508 17.2443 11.1435 17.2556 11.0783 17.2556C11.0071 17.2556 11.0062 17.2586 11.0241 17.4236L11.0336 17.5114C11.0383 17.5542 11.0046 17.5917 10.9615 17.5917C10.8849 17.5917 10.8814 17.5969 10.8976 17.6927C10.924 17.8486 10.8914 17.9632 10.8257 17.9468C10.777 17.9345 10.7715 17.9517 10.7715 18.1127C10.7715 18.2763 10.7661 18.2922 10.7104 18.2922C10.6544 18.2922 10.6499 18.306 10.6574 18.4532C10.6738 18.7806 10.6571 18.9926 10.6147 18.9926C10.5607 18.9926 10.538 19.1179 10.538 19.4162C10.538 19.6462 10.5337 19.6649 10.4798 19.6649C10.4241 19.6649 10.4214 19.6835 10.4214 20.0711C10.4214 20.4587 10.4187 20.4773 10.3631 20.4773C10.3054 20.4773 10.3047 20.4958 10.3047 22.0568C10.3047 23.6673 10.311 23.811 10.3813 23.811C10.4134 23.811 10.4214 23.8896 10.4214 24.2058C10.4214 24.5772 10.4248 24.6017 10.4798 24.6153C10.5331 24.6286 10.538 24.6535 10.538 24.9069C10.538 25.1652 10.5421 25.1839 10.5964 25.1839C10.6568 25.1839 10.6784 25.3386 10.6601 25.6389C10.6548 25.7255 10.6635 25.744 10.7089 25.744C10.7794 25.744 10.8032 25.8498 10.7803 26.0619C10.7636 26.2185 10.7643 26.2202 10.8399 26.2202C10.9161 26.2202 10.9164 26.2211 10.8982 26.3884C10.8799 26.5554 10.8804 26.5564 10.9558 26.5564C11.0316 26.5564 11.0319 26.5571 11.0145 26.7354L11.0046 26.8366C11.0008 26.8756 11.0355 26.9073 11.074 26.9003C11.1479 26.8868 11.1508 26.8908 11.1508 27.0156C11.1508 27.1262 11.1591 27.1449 11.2092 27.1449C11.261 27.1449 11.2674 27.1635 11.2674 27.3129C11.2674 27.4624 11.274 27.4809 11.3258 27.4809C11.3744 27.4809 11.3843 27.4997 11.3843 27.5931C11.3843 27.6864 11.394 27.7051 11.4425 27.7051C11.5266 27.7051 11.5202 27.8098 11.4352 27.8253L11.4342 27.8255C11.4249 27.8272 11.4257 27.8409 11.4352 27.8414C11.49 27.8446 11.5009 27.8614 11.5009 27.9433C11.5009 28.0226 11.512 28.0413 11.5592 28.0413C11.602 28.0413 11.6176 28.06 11.6176 28.1115C11.6176 28.1627 11.6331 28.1813 11.676 28.1813C11.7245 28.1813 11.7342 28.2 11.7342 28.2935C11.7342 28.3869 11.744 28.4056 11.7926 28.4056C11.8412 28.4056 11.8511 28.4242 11.8511 28.5175C11.8511 28.6109 11.8608 28.6296 11.9093 28.6296C11.958 28.6296 11.9677 28.6482 11.9677 28.7416C11.9677 28.8437 11.9746 28.8536 12.0431 28.8536C12.1151 28.8536 12.1177 28.859 12.099 28.9658C12.0801 29.0738 12.0821 29.0778 12.1585 29.0778C12.2347 29.0778 12.237 29.0823 12.2191 29.1898C12.2015 29.2957 12.2045 29.302 12.2736 29.302C12.3323 29.302 12.347 29.3158 12.347 29.3722C12.347 29.4234 12.3625 29.442 12.4052 29.442C12.454 29.442 12.4636 29.4607 12.4636 29.5541C12.4636 29.6474 12.4734 29.6661 12.522 29.6661C12.5609 29.6661 12.5803 29.6847 12.5803 29.7222C12.5803 29.7596 12.5999 29.7782 12.6387 29.7782C12.6873 29.7782 12.6971 29.7969 12.6971 29.8903C12.6971 30.002 12.6974 30.0022 12.8112 30.0022C12.9216 30.0022 12.926 30.006 12.9451 30.1145C12.9572 30.1833 12.9806 30.2265 13.006 30.2265C13.0286 30.2265 13.0471 30.2517 13.0471 30.2825C13.0471 30.3191 13.0667 30.3383 13.1034 30.3383C13.1397 30.3383 13.1632 30.3611 13.1692 30.4015C13.1751 30.4421 13.2019 30.4678 13.2441 30.4734C13.297 30.4808 13.3097 30.5004 13.3097 30.5753C13.3097 30.6446 13.3245 30.6719 13.3681 30.6827C13.4029 30.6917 13.4264 30.721 13.4264 30.7562C13.4264 30.7959 13.4451 30.8147 13.4848 30.8147C13.5236 30.8147 13.5432 30.8334 13.5432 30.8708C13.5432 30.9081 13.5626 30.9268 13.6014 30.9268C13.6533 30.9268 13.6598 30.9454 13.6598 31.095C13.6598 31.2443 13.6663 31.2629 13.7183 31.2629C13.7571 31.2629 13.7765 31.2817 13.7765 31.3189C13.7765 31.3563 13.7959 31.3752 13.8349 31.3752C13.8738 31.3752 13.8932 31.3938 13.8932 31.431C13.8932 31.4685 13.9127 31.4872 13.9516 31.4872C13.9904 31.4872 14.01 31.5058 14.01 31.5432C14.01 31.5805 14.0294 31.599 14.0683 31.599C14.1111 31.599 14.1267 31.6177 14.1267 31.6692C14.1267 31.7206 14.1422 31.7392 14.1851 31.7392C14.2239 31.7392 14.2433 31.7579 14.2433 31.7952C14.2433 31.8326 14.2627 31.8514 14.3017 31.8514C14.3406 31.8514 14.36 31.8699 14.36 31.9074C14.36 31.9447 14.3796 31.9632 14.4184 31.9632C14.4572 31.9632 14.4768 31.9821 14.4768 32.0194C14.4768 32.0603 14.4962 32.0756 14.5497 32.0756C14.6032 32.0756 14.6226 32.0904 14.6226 32.1314C14.6226 32.1697 14.642 32.1875 14.6835 32.1875C14.7367 32.1875 14.7428 32.2007 14.7316 32.2926C14.7246 32.3503 14.7243 32.3757 14.7311 32.3486C14.7487 32.2787 14.8561 32.2849 14.8561 32.3557C14.8561 32.3928 14.8755 32.4115 14.9143 32.4115C14.9533 32.4115 14.9727 32.4301 14.9727 32.4677C14.9727 32.505 14.9922 32.5237 15.0311 32.5237C15.0733 32.5237 15.0894 32.5424 15.0894 32.5911C15.0894 32.6446 15.1013 32.6555 15.1478 32.6438C15.1952 32.6319 15.2061 32.6429 15.2061 32.7026C15.2061 32.757 15.221 32.7757 15.2645 32.7757C15.3033 32.7757 15.3229 32.7944 15.3229 32.8319C15.3229 32.8784 15.3423 32.8879 15.4395 32.8879C15.5368 32.8879 15.5562 32.8972 15.5562 32.9437C15.5562 32.9813 15.5756 32.9999 15.6146 32.9999C15.6535 32.9999 15.6729 33.0186 15.6729 33.0559C15.6729 33.0932 15.6924 33.1119 15.7313 33.1119C15.7701 33.1119 15.7897 33.1306 15.7897 33.1681C15.7897 33.209 15.8091 33.2239 15.8626 33.2239C15.916 33.2239 15.9355 33.239 15.9355 33.2799C15.9355 33.3268 15.9549 33.3363 16.0523 33.3363C16.1495 33.3363 16.1689 33.3455 16.1689 33.3921C16.1689 33.4295 16.1884 33.4481 16.2272 33.4481C16.2662 33.4481 16.2856 33.4668 16.2856 33.5041C16.2856 33.5452 16.305 33.5601 16.3585 33.5601C16.412 33.5601 16.4315 33.5751 16.4315 33.6164C16.4315 33.6616 16.451 33.6722 16.5336 33.6722C16.6139 33.6722 16.6358 33.6835 16.6358 33.7248C16.6358 33.7643 16.6644 33.7814 16.7524 33.7951C16.8432 33.8089 16.8691 33.8254 16.8691 33.8688C16.8691 33.9095 16.8886 33.9243 16.9422 33.9243C16.9848 33.9243 17.015 33.9403 17.015 33.9631C17.015 33.9844 17.0414 34.0084 17.0733 34.0166C17.1054 34.0247 17.1318 34.0511 17.1318 34.0756C17.1318 34.1056 17.1693 34.1257 17.2483 34.1378C17.3364 34.1512 17.3652 34.1687 17.3652 34.2081C17.3652 34.2508 17.3872 34.2604 17.4818 34.2604C17.5791 34.2604 17.5986 34.2701 17.5986 34.3168C17.5986 34.3633 17.6179 34.3726 17.7151 34.3726C17.8124 34.3726 17.832 34.3819 17.832 34.4288C17.832 34.4753 17.8515 34.4846 17.9485 34.4846C18.0459 34.4846 18.0654 34.494 18.0654 34.5406C18.0654 34.5817 18.0847 34.597 18.1382 34.597C18.1918 34.597 18.2112 34.6117 18.2112 34.6528C18.2112 34.6995 18.2305 34.7088 18.3279 34.7088C18.4252 34.7088 18.4446 34.7181 18.4446 34.7649C18.4446 34.8147 18.4641 34.8209 18.6196 34.8209C18.806 34.8209 18.8858 34.9097 18.7289 34.9429C18.693 34.9505 18.7718 34.9501 18.9041 34.9419C19.132 34.9279 19.1448 34.9302 19.1448 34.9844C19.1448 35.0318 19.1663 35.0434 19.2689 35.0504C19.3779 35.0581 19.3926 35.0668 19.39 35.1249C19.3877 35.1851 19.3965 35.1895 19.4923 35.1746C19.6355 35.1528 19.7284 35.1801 19.7284 35.2445C19.7284 35.2882 19.7505 35.2971 19.8596 35.2971C19.9714 35.2971 19.9911 35.3053 19.9911 35.3531C19.9911 35.403 20.0104 35.4091 20.166 35.4091C20.3215 35.4091 20.3408 35.4154 20.3408 35.4651C20.3408 35.5155 20.3605 35.5213 20.5305 35.5213C20.7007 35.5213 20.7204 35.5269 20.7204 35.5775C20.7204 35.6288 20.7397 35.6333 20.9536 35.6333C21.1675 35.6333 21.187 35.638 21.187 35.6893C21.187 35.7408 21.2065 35.7453 21.4204 35.7453C21.6344 35.7453 21.6538 35.75 21.6538 35.8015C21.6538 35.8538 21.6733 35.8575 21.9602 35.8575C22.247 35.8575 22.2665 35.861 22.2665 35.9135C22.2665 35.9665 22.2859 35.9695 22.6311 35.9695C22.9765 35.9695 22.996 35.9724 22.996 36.0255C22.996 36.0783 23.0155 36.0816 23.3461 36.0816C23.5393 36.0816 23.6962 36.2381 23.6962 36.4313V38.2107C23.6962 40.3212 23.6965 40.3399 23.7544 40.3399C23.8062 40.3399 23.8129 40.3585 23.8129 40.5079C23.8129 40.6574 23.8192 40.6759 23.8712 40.6759C23.9198 40.6759 23.9296 40.6947 23.9296 40.7879C23.9296 40.8814 23.9392 40.9001 23.9879 40.9001C24.0268 40.9001 24.0461 40.9187 24.0461 40.9561C24.0461 40.9935 24.0656 41.0121 24.1046 41.0121C24.1421 41.0121 24.163 41.0308 24.163 41.0646C24.163 41.1042 24.1916 41.1215 24.2797 41.1348C24.3704 41.149 24.3964 41.1654 24.3964 41.2086C24.3964 41.2613 24.4166 41.2643 24.773 41.2643C25.1282 41.2643 25.1487 41.2613 25.135 41.2111C25.1198 41.1554 25.2484 41.1196 25.4176 41.1327C25.473 41.1369 25.4927 41.1234 25.4997 41.0753C25.5083 41.0179 25.525 41.0121 25.682 41.0121C25.8356 41.0121 25.8552 41.0058 25.8552 40.9561C25.8552 40.9094 25.8747 40.9001 25.9718 40.9001C26.0692 40.9001 26.0885 40.8908 26.0885 40.8441C26.0885 40.7942 26.1079 40.7879 26.2636 40.7879C26.4191 40.7879 26.4386 40.7818 26.4386 40.7319C26.4386 40.6842 26.4581 40.6759 26.5698 40.6759C26.6816 40.6759 26.7013 40.6677 26.7013 40.6199C26.7013 40.5732 26.7208 40.5639 26.8178 40.5639C26.9152 40.5639 26.9347 40.5545 26.9347 40.5079C26.9347 40.461 26.954 40.4517 27.0512 40.4517C27.1484 40.4517 27.1681 40.4425 27.1681 40.3958C27.1681 40.3527 27.1876 40.3399 27.252 40.3399C27.3967 40.3399 27.518 40.3063 27.518 40.2663C27.518 40.2449 27.5456 40.2277 27.5791 40.2277C27.6149 40.2277 27.6465 40.2054 27.6551 40.1737C27.6649 40.1368 27.7054 40.114 27.7835 40.1011C27.8525 40.09 27.8972 40.0673 27.8972 40.0435C27.8972 40.0193 27.9423 39.9973 28.0141 39.9864C28.102 39.9728 28.1308 39.9556 28.1308 39.9161C28.1308 39.8736 28.1529 39.8636 28.2475 39.8636C28.3446 39.8636 28.364 39.8541 28.364 39.8074C28.364 39.7701 28.3837 39.7514 28.4225 39.7514C28.4614 39.7514 28.4809 39.7328 28.4809 39.6956C28.4809 39.6487 28.5004 39.6394 28.5976 39.6394C28.6948 39.6394 28.7143 39.6301 28.7143 39.5834C28.7143 39.5332 28.7336 39.5274 28.904 39.5274C29.0741 39.5274 29.0936 39.5216 29.0936 39.4712C29.0936 39.4245 29.113 39.4152 29.2101 39.4152C29.3075 39.4152 29.327 39.406 29.327 39.3594C29.327 39.3218 29.3464 39.3032 29.3854 39.3032C29.4242 39.3032 29.4437 39.2845 29.4437 39.2472C29.4437 39.2005 29.463 39.1912 29.5604 39.1912C29.6576 39.1912 29.6769 39.182 29.6769 39.1351C29.6769 39.0978 29.6965 39.0792 29.7353 39.0792C29.7743 39.0792 29.7938 39.0603 29.7938 39.0232C29.7938 38.9763 29.8132 38.9669 29.9105 38.9669C30.0077 38.9669 30.0272 38.9576 30.0272 38.9111C30.0272 38.8729 30.0466 38.8551 30.0882 38.8551C30.1242 38.8551 30.1555 38.8326 30.1642 38.801C30.1741 38.764 30.2148 38.7411 30.2925 38.7285C30.3783 38.7145 30.4064 38.6968 30.4064 38.6564C30.4064 38.6216 30.4268 38.6029 30.4648 38.6029C30.5036 38.6029 30.5231 38.5842 30.5231 38.5469C30.5231 38.5 30.5426 38.4907 30.64 38.4907C30.737 38.4907 30.7565 38.4814 30.7565 38.4347C30.7565 38.3974 30.776 38.3789 30.8149 38.3789C30.8537 38.3789 30.8732 38.3601 30.8732 38.3227C30.8732 38.2854 30.8927 38.2667 30.9316 38.2667C30.9704 38.2667 30.9899 38.248 30.9899 38.2107C30.9899 38.1638 31.0094 38.1545 31.1068 38.1545C31.2038 38.1545 31.2233 38.1452 31.2233 38.0987C31.2233 38.0576 31.2428 38.0427 31.2963 38.0427C31.3497 38.0427 31.3693 38.0276 31.3693 37.9863C31.3693 37.954 31.3886 37.9305 31.4157 37.9305C31.4413 37.9305 31.4688 37.9064 31.4767 37.8772C31.486 37.843 31.5274 37.8173 31.5908 37.8058C31.6469 37.7958 31.6901 37.7711 31.6901 37.7492C31.6901 37.7277 31.7198 37.7064 31.7558 37.7015C31.798 37.6957 31.8247 37.6699 31.8307 37.6293C31.8367 37.5889 31.8602 37.5663 31.8963 37.5663C31.9333 37.5663 31.9528 37.5471 31.9528 37.5102C31.9528 37.4729 31.9723 37.4544 32.0111 37.4544C32.0499 37.4544 32.0694 37.4356 32.0694 37.3983C32.0694 37.3607 32.0888 37.3422 32.1278 37.3422C32.1667 37.3422 32.1861 37.3235 32.1861 37.2862C32.1861 37.2395 32.2057 37.2302 32.3029 37.2302C32.4002 37.2302 32.4196 37.2209 32.4196 37.174C32.4196 37.1367 32.4389 37.1182 32.4779 37.1182C32.5167 37.1182 32.5362 37.0995 32.5362 37.0622C32.5362 37.0247 32.5556 37.006 32.5946 37.006C32.6336 37.006 32.6529 36.9873 32.6529 36.95C32.6529 36.9087 32.6725 36.894 32.7259 36.894C32.7794 36.894 32.7989 36.8791 32.7989 36.838C32.7989 36.8005 32.8183 36.782 32.8573 36.782C32.8961 36.782 32.9154 36.7633 32.9154 36.7258C32.9154 36.6886 32.9349 36.6698 32.9738 36.6698C33.0128 36.6698 33.0323 36.6513 33.0323 36.6138C33.0323 36.5765 33.0517 36.558 33.0907 36.558C33.1293 36.558 33.149 36.5389 33.149 36.5018C33.149 36.4644 33.1683 36.4457 33.2072 36.4457C33.2451 36.4457 33.2657 36.4271 33.2657 36.393C33.2657 36.3638 33.2916 36.3337 33.3241 36.3256C33.3589 36.3169 33.3822 36.2875 33.3822 36.2521C33.3822 36.2122 33.401 36.1935 33.4406 36.1935C33.4892 36.1935 33.4989 36.1749 33.4989 36.0816C33.4989 35.9882 33.5085 35.9695 33.5575 35.9695C33.6061 35.9695 33.6158 35.9509 33.6158 35.8575C33.6158 35.7623 33.6251 35.7453 33.6768 35.7453C33.7133 35.7453 33.7439 35.7229 33.7532 35.6893C33.7616 35.6585 33.7865 35.6333 33.8088 35.6333C33.8309 35.6333 33.849 35.6079 33.849 35.5775C33.849 35.539 33.8685 35.5213 33.9102 35.5213C33.9459 35.5213 33.9775 35.4989 33.9857 35.4678C33.9938 35.4384 34.0254 35.4081 34.0559 35.4002C34.0866 35.3927 34.1117 35.3678 34.1117 35.3449C34.1117 35.3223 34.1379 35.2971 34.1701 35.2891C34.2051 35.2801 34.2282 35.2506 34.2282 35.2157C34.2282 35.1757 34.247 35.1571 34.2868 35.1571C34.3256 35.1571 34.3451 35.1384 34.3451 35.1011C34.3451 35.0637 34.3646 35.045 34.4035 35.045C34.4423 35.045 34.4618 35.0262 34.4618 34.989C34.4618 34.9517 34.4813 34.9329 34.5201 34.9329C34.559 34.9329 34.5785 34.9142 34.5785 34.8769C34.5785 34.8395 34.598 34.8209 34.6369 34.8209C34.6757 34.8209 34.695 34.8022 34.695 34.7649C34.695 34.7273 34.7145 34.7088 34.7535 34.7088C34.7924 34.7088 34.8119 34.6902 34.8119 34.6528C34.8119 34.6162 34.8314 34.597 34.8681 34.597C34.9044 34.597 34.9279 34.5742 34.9339 34.5338C34.9398 34.4932 34.9665 34.4673 35.0088 34.4617C35.0623 34.4543 35.0744 34.4349 35.0744 34.3567C35.0744 34.2793 35.0858 34.2604 35.1329 34.2604C35.1704 34.2604 35.1913 34.2419 35.1913 34.2078C35.1913 34.1787 35.2173 34.1486 35.2496 34.1404C35.2845 34.1316 35.3078 34.1022 35.3078 34.0672C35.3078 34.0271 35.3264 34.0084 35.3661 34.0084C35.4149 34.0084 35.4245 33.9899 35.4245 33.8964C35.4245 33.8032 35.4342 33.7844 35.483 33.7844C35.5218 33.7844 35.5412 33.7655 35.5412 33.7283C35.5412 33.691 35.5606 33.6722 35.5997 33.6722C35.6483 33.6722 35.6581 33.6535 35.6581 33.5601C35.6581 33.4668 35.6678 33.4481 35.7164 33.4481C35.7552 33.4481 35.7747 33.4295 35.7747 33.3921C35.7747 33.3548 35.7941 33.3363 35.8329 33.3363C35.872 33.3363 35.8914 33.3174 35.8914 33.2799C35.8914 33.2428 35.9108 33.2239 35.9498 33.2239C35.9984 33.2239 36.0081 33.2053 36.0081 33.1119C36.0081 33.0186 36.0177 32.9999 36.0665 32.9999C36.1098 32.9999 36.1249 32.9813 36.1249 32.9266C36.1249 32.8632 36.1349 32.8552 36.1988 32.8669C36.2713 32.8802 36.2725 32.8777 36.2539 32.758C36.2355 32.6403 36.2376 32.6359 36.3111 32.6359C36.3806 32.6359 36.3873 32.6259 36.3873 32.5237C36.3873 32.4072 36.4582 32.3606 36.4831 32.4605C36.49 32.4875 36.4896 32.4625 36.4828 32.4045C36.4706 32.3071 36.475 32.2994 36.5452 32.2994C36.6181 32.2994 36.6207 32.2938 36.6207 32.1314C36.6207 31.9821 36.6272 31.9632 36.679 31.9632C36.7277 31.9632 36.7376 31.9447 36.7376 31.8514C36.7376 31.7579 36.747 31.7392 36.796 31.7392C36.8444 31.7392 36.8541 31.7206 36.8541 31.6272C36.8541 31.5337 36.8639 31.5152 36.9125 31.5152C36.9624 31.5152 36.971 31.4965 36.971 31.389C36.971 31.2818 36.9794 31.2629 37.0292 31.2629C37.0778 31.2629 37.0875 31.2443 37.0875 31.1508C37.0875 31.0576 37.0973 31.0389 37.1458 31.0389C37.1947 31.0389 37.2042 31.0203 37.2042 30.9268C37.2042 30.8334 37.2138 30.8147 37.2628 30.8147C37.3112 30.8147 37.3211 30.7959 37.3211 30.7027C37.3211 30.605 37.3295 30.5907 37.3867 30.5907C37.4471 30.5907 37.4518 30.5797 37.4422 30.4645C37.433 30.352 37.4383 30.3383 37.4932 30.3383C37.5545 30.3383 37.5664 30.3075 37.5555 30.1773C37.5513 30.1269 37.5654 30.1145 37.6254 30.1145C37.6933 30.1145 37.7001 30.104 37.7001 30.0022C37.7001 29.9089 37.71 29.8903 37.7586 29.8903C37.8072 29.8903 37.817 29.8716 37.817 29.7782C37.817 29.6847 37.8267 29.6661 37.8753 29.6661C37.9272 29.6661 37.9335 29.6474 37.9335 29.498C37.9335 29.3485 37.94 29.33 37.9921 29.33C38.0418 29.33 38.0504 29.3113 38.0504 29.204C38.0504 29.0965 38.059 29.0778 38.1088 29.0778C38.1604 29.0778 38.1671 29.0592 38.1671 28.9098C38.1671 28.7603 38.1734 28.7416 38.2254 28.7416C38.2773 28.7416 38.2838 28.7231 38.2838 28.5736C38.2838 28.4242 38.2903 28.4056 38.3421 28.4056C38.3945 28.4056 38.4003 28.3869 38.4003 28.2234C38.4003 28.06 38.4065 28.0413 38.4588 28.0413C38.5144 28.0413 38.5172 28.0226 38.5172 27.6491C38.5172 27.2804 38.5205 27.2569 38.5734 27.2569C38.6085 27.2569 38.6348 27.2806 38.6427 27.3199C38.6495 27.3546 38.6539 27.2506 38.652 27.0889C38.6485 26.8 38.6495 26.7946 38.7171 26.7853C38.7836 26.7764 38.7852 26.7697 38.7664 26.5993C38.7357 26.3251 38.8299 26.0538 38.8757 26.2834C38.8829 26.3181 38.8903 26.1919 38.8926 26.0032C38.8963 25.68 38.8998 25.66 38.9549 25.66C39.0086 25.66 39.013 25.6415 39.013 25.4219C39.013 25.2024 39.0177 25.1839 39.0714 25.1839C39.1276 25.1839 39.1298 25.1652 39.1298 24.7182C39.1298 24.2665 39.1316 24.2532 39.1881 24.2674C39.2457 24.2819 39.2465 24.2683 39.2465 23.346C39.2465 22.429 39.2478 22.4103 39.305 22.4103C39.3601 22.4103 39.3632 22.3916 39.3632 22.0741C39.3632 21.7565 39.3601 21.738 39.305 21.738C39.2481 21.738 39.2465 21.7194 39.2465 21.0516C39.2465 20.384 39.245 20.3651 39.1881 20.3651C39.133 20.3651 39.1298 20.3465 39.1298 20.0149C39.1298 19.6835 39.1267 19.6649 39.0714 19.6649C39.0163 19.6649 39.013 19.6462 39.013 19.3286C39.013 19.0163 39.0091 18.9926 38.9573 18.9926C38.8878 18.9926 38.8536 18.833 38.8829 18.6445C38.9028 18.5185 38.9017 18.5162 38.8226 18.5162C38.779 18.5162 38.7443 18.4796 38.7469 18.4361L38.7559 18.285C38.7632 18.1582 38.7643 18.0822 38.7578 18.117C38.7138 18.3594 38.6153 18.0505 38.6408 17.7497C38.6488 17.655 38.6495 17.606 38.6427 17.6409C38.6346 17.6801 38.6086 17.7037 38.5734 17.7037C38.5218 17.7037 38.5172 17.682 38.5172 17.4236C38.5172 17.1622 38.5132 17.1435 38.4588 17.1435C38.4068 17.1435 38.4003 17.1249 38.4003 16.9754C38.4003 16.826 38.394 16.8073 38.3421 16.8073C38.2922 16.8073 38.2838 16.7887 38.2838 16.6813C38.2838 16.5739 38.2752 16.5552 38.2254 16.5552C38.1768 16.5552 38.1671 16.5364 38.1671 16.4431C38.1671 16.3498 38.1573 16.3311 38.1088 16.3311C38.0569 16.3311 38.0504 16.3125 38.0504 16.163C38.0504 16.0161 38.0432 15.9949 37.9946 15.9949C37.9521 15.9949 37.9339 15.9679 37.9191 15.8829C37.9041 15.7978 37.8858 15.7708 37.8435 15.7708C37.8072 15.7708 37.7879 15.7512 37.7879 15.7148C37.7879 15.6775 37.7684 15.6587 37.7296 15.6587C37.6905 15.6587 37.671 15.64 37.671 15.6027C37.671 15.5719 37.6524 15.5467 37.6292 15.5467C37.6019 15.5467 37.5801 15.5029 37.5673 15.4206C37.5522 15.3225 37.5355 15.2945 37.4927 15.2945C37.4573 15.2945 37.4378 15.2747 37.4378 15.2386C37.4378 15.2011 37.4181 15.1825 37.3793 15.1825C37.3307 15.1825 37.3211 15.1638 37.3211 15.0705C37.3211 14.9771 37.3112 14.9584 37.2628 14.9584C37.2138 14.9584 37.2042 14.9396 37.2042 14.8463C37.2042 14.7529 37.1947 14.7342 37.1458 14.7342C37.107 14.7342 37.0875 14.7156 37.0875 14.6782C37.0875 14.6409 37.0682 14.6222 37.0292 14.6222C36.9806 14.6222 36.971 14.6036 36.971 14.5102C36.971 14.4168 36.9611 14.398 36.9125 14.398C36.8729 14.398 36.8541 14.3794 36.8541 14.3394C36.8541 14.3045 36.8309 14.275 36.7965 14.2664C36.759 14.2569 36.7325 14.2187 36.7202 14.1569C36.7098 14.1031 36.6842 14.062 36.6612 14.062C36.6375 14.062 36.6207 14.033 36.6207 13.9918C36.6207 13.9405 36.6052 13.9218 36.5624 13.9218C36.5154 13.9218 36.5042 13.9032 36.5042 13.8257C36.5042 13.7474 36.4919 13.7279 36.4385 13.7207C36.3962 13.7148 36.3694 13.6892 36.3634 13.6487C36.3575 13.6081 36.3341 13.5856 36.298 13.5856C36.2609 13.5856 36.2415 13.5662 36.2415 13.5297C36.2415 13.4922 36.2222 13.4736 36.1832 13.4736C36.1442 13.4736 36.1249 13.4549 36.1249 13.4175C36.1249 13.3802 36.1053 13.3616 36.0665 13.3616C36.0274 13.3616 36.0081 13.3429 36.0081 13.3055C36.0081 13.2682 35.9888 13.2495 35.9498 13.2495C35.9108 13.2495 35.8914 13.2307 35.8914 13.1935C35.8914 13.156 35.872 13.1374 35.8329 13.1374C35.7941 13.1374 35.7747 13.1187 35.7747 13.0814C35.7747 13.044 35.7552 13.0253 35.7164 13.0253C35.6766 13.0253 35.6581 13.0067 35.6581 12.9667C35.6581 12.9315 35.6346 12.9021 35.5997 12.8934C35.5674 12.8852 35.5412 12.8552 35.5412 12.826C35.5412 12.793 35.5205 12.7732 35.4863 12.7732C35.456 12.7732 35.4245 12.7482 35.4159 12.7172C35.4077 12.6864 35.3814 12.6612 35.3579 12.6612C35.334 12.6612 35.3077 12.6359 35.2994 12.6051C35.2903 12.5716 35.2598 12.5491 35.2231 12.5491C35.1813 12.5491 35.162 12.5312 35.162 12.4931C35.162 12.4477 35.1427 12.437 35.0602 12.437C34.9641 12.437 34.9574 12.4308 34.9398 12.3249C34.9218 12.2167 34.9174 12.2129 34.8081 12.2129C34.7145 12.2129 34.695 12.2033 34.695 12.1568C34.695 12.1195 34.6757 12.1009 34.6369 12.1009C34.598 12.1009 34.5785 12.0821 34.5785 12.0448C34.5785 12.0075 34.559 11.9887 34.5201 11.9887C34.4813 11.9887 34.4618 11.9701 34.4618 11.9328C34.4618 11.8946 34.4423 11.8767 34.4007 11.8767C34.3651 11.8767 34.3335 11.8545 34.3251 11.8233C34.316 11.7894 34.2746 11.7634 34.2112 11.7521C34.1549 11.7419 34.1117 11.7173 34.1117 11.6953C34.1117 11.674 34.0822 11.6525 34.0461 11.6475C34.0038 11.6418 33.9771 11.6161 33.9711 11.5756C33.9652 11.535 33.9417 11.5125 33.9055 11.5125C33.8685 11.5125 33.849 11.4932 33.849 11.4566C33.849 11.4098 33.8297 11.4005 33.7325 11.4005C33.6351 11.4005 33.6158 11.3912 33.6158 11.3444C33.6158 11.3071 33.5963 11.2885 33.5575 11.2885C33.5085 11.2885 33.4989 11.2697 33.4989 11.1763C33.4989 11.1144 33.4489 11.0643 33.3869 11.0643H33.3822C33.2851 11.0643 33.2657 11.055 33.2657 11.0084C33.2657 10.9584 33.2462 10.9523 33.0907 10.9523C32.9349 10.9523 32.9154 10.946 32.9154 10.8962C32.9154 10.8493 32.8961 10.8402 32.7962 10.8402C32.7013 10.8402 32.6736 10.8286 32.6613 10.7842C32.6529 10.7532 32.6214 10.7281 32.5913 10.7281C32.5556 10.7281 32.5362 10.7083 32.5362 10.6721C32.5362 10.6254 32.5167 10.6161 32.4196 10.6161C32.3242 10.6161 32.3029 10.6063 32.3029 10.5625C32.3029 10.5218 32.2747 10.5043 32.1861 10.49C32.1145 10.4784 32.0694 10.4558 32.0694 10.4314C32.0694 10.4098 32.042 10.392 32.0085 10.392C31.9718 10.392 31.9411 10.3695 31.9319 10.3358C31.9211 10.296 31.8833 10.2744 31.8035 10.2621C31.7187 10.2491 31.6901 10.2315 31.6901 10.1922C31.6901 10.1497 31.6682 10.1398 31.5736 10.1398C31.4762 10.1398 31.4567 10.1305 31.4567 10.0838C31.4567 10.0372 31.4374 10.0278 31.34 10.0278C31.2428 10.0278 31.2233 10.0184 31.2233 9.97174C31.2233 9.92498 31.2038 9.91565 31.1068 9.91565C31.0094 9.91565 30.9899 9.90634 30.9899 9.85972C30.9899 9.80981 30.9704 9.80362 30.8149 9.80362C30.6593 9.80362 30.64 9.79746 30.64 9.74755C30.64 9.69993 30.6205 9.6916 30.5087 9.6916C30.3966 9.6916 30.3773 9.68329 30.3773 9.63553C30.3773 9.58618 30.3578 9.5796 30.2141 9.5796C30.0753 9.5796 30.0486 9.57111 30.0356 9.52349C30.0238 9.47962 29.9958 9.46742 29.907 9.46742C29.8059 9.46742 29.7938 9.46009 29.7938 9.39786C29.7938 9.32958 29.7903 9.32858 29.6214 9.3455C29.4556 9.36214 29.4484 9.36013 29.4389 9.29615C29.4298 9.23418 29.4163 9.2293 29.254 9.2293C29.0925 9.2293 29.0781 9.22416 29.0693 9.16376C29.0602 9.10237 29.0488 9.09879 28.8942 9.10768C28.7415 9.11658 28.7282 9.11256 28.7196 9.05418C28.711 8.99695 28.6943 8.99121 28.5373 8.99121C28.3837 8.99121 28.364 8.9849 28.364 8.93513C28.364 8.8835 28.3446 8.8792 28.1163 8.8792C27.8876 8.8792 27.8683 8.87473 27.8683 8.82309C27.8683 8.77019 27.8488 8.76716 27.518 8.76716C27.1876 8.76716 27.1681 8.76399 27.1681 8.71109C27.1681 8.65758 27.1484 8.65499 26.745 8.65499C26.3415 8.65499 26.322 8.65241 26.322 8.59906C26.322 8.54355 26.3024 8.54297 24.5422 8.54297C22.7819 8.54297 22.7626 8.54355 22.7626 8.59906ZM25.8623 10.3881C26.0678 10.3916 26.0885 10.3972 26.0885 10.4479C26.0885 10.5014 26.1079 10.504 26.5116 10.504C26.8524 10.504 26.9347 10.5115 26.9347 10.5428C26.9347 10.5987 27.0289 10.6152 27.3502 10.6156C27.6151 10.6161 27.6349 10.6199 27.6349 10.6721C27.6349 10.7235 27.6544 10.7281 27.8683 10.7281C28.082 10.7281 28.1017 10.7328 28.1017 10.7842C28.1017 10.8367 28.1212 10.8402 28.4077 10.8402C28.6948 10.8402 28.7143 10.8437 28.7143 10.8962C28.7143 10.9465 28.7336 10.9523 28.904 10.9523C29.0741 10.9523 29.0936 10.958 29.0936 11.0084C29.0936 11.0581 29.113 11.0643 29.2685 11.0643C29.4242 11.0643 29.4437 11.0706 29.4437 11.1204C29.4437 11.1634 29.463 11.1763 29.5274 11.1763C29.6723 11.1763 29.7938 11.2099 29.7938 11.2499C29.7938 11.2762 29.8308 11.2885 29.9105 11.2885C30.0077 11.2885 30.0272 11.2978 30.0272 11.3444C30.0272 11.3912 30.0467 11.4005 30.1437 11.4005C30.24 11.4005 30.2606 11.4101 30.2606 11.4549C30.2606 11.4989 30.2843 11.511 30.3846 11.518C30.4877 11.5252 30.5099 11.5372 30.5178 11.5896C30.5257 11.6428 30.5452 11.6526 30.6417 11.6526C30.737 11.6526 30.7565 11.6621 30.7565 11.7086C30.7565 11.7554 30.776 11.7647 30.8732 11.7647C30.9704 11.7647 30.9899 11.774 30.9899 11.8208C30.9899 11.8581 31.0094 11.8767 31.0482 11.8767C31.0873 11.8767 31.1068 11.8954 31.1068 11.9328C31.1068 11.9794 31.1261 11.9887 31.2233 11.9887C31.3205 11.9887 31.34 11.9982 31.34 12.0448C31.34 12.0916 31.3595 12.1009 31.4567 12.1009C31.5541 12.1009 31.5736 12.1102 31.5736 12.1568C31.5736 12.1951 31.5929 12.2129 31.6347 12.2129C31.671 12.2129 31.7017 12.2355 31.7108 12.269C31.7229 12.3129 31.7507 12.3249 31.8395 12.3249C31.9333 12.3249 31.9528 12.3346 31.9528 12.381C31.9528 12.4183 31.9723 12.437 32.0111 12.437C32.0499 12.437 32.0694 12.4558 32.0694 12.4931C32.0694 12.5398 32.0888 12.5491 32.1861 12.5491C32.291 12.5491 32.3029 12.5562 32.3029 12.6191C32.3029 12.6705 32.3184 12.6891 32.3612 12.6891C32.3933 12.6891 32.4196 12.7069 32.4196 12.7287C32.4196 12.7531 32.4646 12.7756 32.5362 12.7872C32.612 12.7996 32.6529 12.8209 32.6529 12.8484C32.6529 12.8716 32.6792 12.8971 32.7113 12.9052C32.7436 12.9133 32.7696 12.9434 32.7696 12.9726C32.7696 13.0067 32.7903 13.0253 32.828 13.0253C32.8619 13.0253 32.8864 13.044 32.8864 13.07C32.8864 13.0945 32.9114 13.1209 32.9419 13.1286C32.9726 13.1364 33.0044 13.1666 33.0121 13.196C33.0207 13.2272 33.0523 13.2495 33.0879 13.2495C33.1293 13.2495 33.149 13.2673 33.149 13.3055C33.149 13.3522 33.1683 13.3616 33.2657 13.3616C33.3629 13.3616 33.3822 13.3709 33.3822 13.4175C33.3822 13.4549 33.4017 13.4736 33.4406 13.4736C33.4892 13.4736 33.4989 13.4922 33.4989 13.5856C33.4989 13.679 33.4892 13.6978 33.4406 13.6978C33.4017 13.6978 33.3822 13.7164 33.3822 13.7537C33.3822 13.7911 33.3629 13.8098 33.3241 13.8098C33.2851 13.8098 33.2657 13.8284 33.2657 13.8657C33.2657 13.9032 33.2462 13.9218 33.2072 13.9218C33.1676 13.9218 33.149 13.9405 33.149 13.9805C33.149 14.0146 33.1256 14.045 33.0933 14.0531C33.0626 14.0608 33.0312 14.0911 33.0231 14.1205C33.0145 14.1516 32.983 14.174 32.9475 14.174C32.9057 14.174 32.8864 14.1918 32.8864 14.2299C32.8864 14.2673 32.867 14.286 32.828 14.286C32.789 14.286 32.7696 14.3047 32.7696 14.3421C32.7696 14.3794 32.7503 14.398 32.7113 14.398C32.6725 14.398 32.6529 14.4168 32.6529 14.4541C32.6529 14.4914 32.6336 14.5102 32.5946 14.5102C32.5556 14.5102 32.5362 14.5288 32.5362 14.5661C32.5362 14.6036 32.5167 14.6222 32.4779 14.6222C32.4389 14.6222 32.4196 14.6409 32.4196 14.6782C32.4196 14.7156 32.4002 14.7342 32.3612 14.7342C32.3222 14.7342 32.3029 14.7529 32.3029 14.7903C32.3029 14.8276 32.2834 14.8463 32.2445 14.8463C32.2057 14.8463 32.1861 14.8651 32.1861 14.9023C32.1861 14.9489 32.1667 14.9584 32.0694 14.9584C31.9723 14.9584 31.9528 14.9489 31.9528 14.9023C31.9528 14.8651 31.9333 14.8463 31.8944 14.8463C31.8554 14.8463 31.8361 14.8276 31.8361 14.7903C31.8361 14.754 31.8165 14.7342 31.7812 14.7342C31.7507 14.7342 31.7192 14.7093 31.7108 14.6782C31.7017 14.6447 31.671 14.6222 31.6347 14.6222C31.5929 14.6222 31.5736 14.6043 31.5736 14.5661C31.5736 14.5288 31.5541 14.5102 31.515 14.5102C31.4762 14.5102 31.4567 14.4914 31.4567 14.4541C31.4567 14.4073 31.4374 14.398 31.34 14.398C31.2428 14.398 31.2233 14.3887 31.2233 14.3421C31.2233 14.3047 31.2038 14.286 31.165 14.286C31.1261 14.286 31.1068 14.2673 31.1068 14.2299C31.1068 14.1833 31.0873 14.174 30.9899 14.174C30.8927 14.174 30.8732 14.1647 30.8732 14.1179C30.8732 14.0806 30.8537 14.062 30.8149 14.062C30.772 14.062 30.7565 14.0432 30.7565 13.9918C30.7565 13.9291 30.7447 13.9218 30.6433 13.9218C30.5545 13.9218 30.5268 13.9096 30.5147 13.8657C30.5056 13.8323 30.4748 13.8098 30.4383 13.8098C30.3966 13.8098 30.3773 13.7919 30.3773 13.7537C30.3773 13.7071 30.3578 13.6978 30.2606 13.6978C30.1634 13.6978 30.1437 13.6883 30.1437 13.6417C30.1437 13.5949 30.1242 13.5856 30.0272 13.5856C29.9298 13.5856 29.9105 13.5763 29.9105 13.5297C29.9105 13.4829 29.891 13.4736 29.7938 13.4736C29.6965 13.4736 29.6769 13.4642 29.6769 13.4175C29.6769 13.3709 29.6576 13.3616 29.5604 13.3616C29.463 13.3616 29.4437 13.3522 29.4437 13.3055C29.4437 13.2586 29.4242 13.2495 29.3242 13.2495C29.2292 13.2495 29.2017 13.2379 29.1896 13.1935C29.1776 13.1496 29.1497 13.1374 29.0609 13.1374C28.9607 13.1374 28.9477 13.1296 28.9477 13.07C28.9477 13.0047 28.9425 13.0031 28.7728 13.0179C28.6104 13.0319 28.5976 13.0289 28.5976 12.9757C28.5976 12.9305 28.5727 12.9142 28.4809 12.8993C28.4142 12.8885 28.364 12.8646 28.364 12.8438C28.364 12.8182 28.293 12.801 28.1308 12.7872C27.9729 12.7738 27.8972 12.756 27.8972 12.7319C27.8972 12.6919 27.7456 12.6619 27.5399 12.6615C27.421 12.6612 27.4015 12.6533 27.4015 12.6051C27.4015 12.5534 27.382 12.5491 27.1533 12.5491C26.9619 12.5491 26.9054 12.5402 26.9054 12.5103C26.9054 12.4525 26.8099 12.4378 26.4314 12.4374C26.1081 12.4371 26.0885 12.4338 26.0885 12.381C26.0885 12.3258 26.0692 12.3249 24.8339 12.3249C23.5988 12.3249 23.5793 12.3258 23.5793 12.381C23.5793 12.4331 23.56 12.437 23.3059 12.437C22.9809 12.437 22.85 12.4582 22.85 12.5106C22.85 12.5395 22.8001 12.5491 22.6496 12.5491C22.5392 12.5491 22.4079 12.557 22.3577 12.5666C22.3075 12.5762 22.2665 12.6015 22.2665 12.6226C22.2665 12.6511 22.2201 12.6612 22.0887 12.6612C21.9355 12.6612 21.9088 12.6689 21.8958 12.7172C21.8835 12.7617 21.8558 12.7733 21.7598 12.7735C21.5719 12.774 21.4204 12.8052 21.4204 12.8435C21.4204 12.8802 21.2946 12.9133 21.1544 12.9133C21.1014 12.9133 21.0703 12.9279 21.0703 12.9529C21.0703 12.9936 20.9162 13.0275 20.7787 13.0169C20.7218 13.0126 20.7034 13.0262 20.6958 13.078C20.6865 13.1412 20.6778 13.144 20.5281 13.1291C20.3743 13.1138 20.3703 13.1153 20.3703 13.1843C20.3703 13.251 20.3626 13.2546 20.2389 13.2451C20.1188 13.2359 20.1076 13.2405 20.1076 13.2983C20.1076 13.3534 20.0925 13.3616 19.9911 13.3616C19.8937 13.3616 19.874 13.3709 19.874 13.4175C19.874 13.4642 19.8547 13.4736 19.7575 13.4736C19.6603 13.4736 19.6408 13.4829 19.6408 13.5297C19.6408 13.567 19.6213 13.5856 19.5823 13.5856C19.5436 13.5856 19.5243 13.6042 19.5243 13.6417C19.5243 13.6883 19.5046 13.6978 19.4072 13.6978C19.3102 13.6978 19.2907 13.7071 19.2907 13.7537C19.2907 13.7949 19.2712 13.8098 19.2177 13.8098C19.165 13.8098 19.1448 13.8249 19.1448 13.8642C19.1448 13.9066 19.1212 13.9204 19.0355 13.9271C18.9476 13.9342 18.9243 13.9482 18.9167 13.9988C18.9106 14.0394 18.8871 14.062 18.8509 14.062C18.82 14.062 18.7947 14.0808 18.7947 14.104C18.7947 14.1272 18.7686 14.146 18.7363 14.146C18.6937 14.146 18.678 14.1647 18.678 14.216C18.678 14.2673 18.6624 14.286 18.6196 14.286C18.5808 14.286 18.5612 14.3047 18.5612 14.3421C18.5612 14.3887 18.5417 14.398 18.4446 14.398C18.3472 14.398 18.3279 14.4073 18.3279 14.4541C18.3279 14.4914 18.3085 14.5102 18.2695 14.5102C18.2305 14.5102 18.2112 14.5288 18.2112 14.5661C18.2112 14.6043 18.1918 14.6222 18.1502 14.6222C18.1145 14.6222 18.083 14.6444 18.0745 14.6756C18.0665 14.705 18.0347 14.7354 18.0042 14.743C17.9736 14.7507 17.9485 14.7771 17.9485 14.8017C17.9485 14.8276 17.9241 14.8463 17.8901 14.8463C17.8515 14.8463 17.832 14.8651 17.832 14.9023C17.832 14.9521 17.8124 14.9584 17.6569 14.9584C17.5012 14.9584 17.4818 14.9521 17.4818 14.9023C17.4818 14.8651 17.4624 14.8463 17.4234 14.8463C17.3762 14.8463 17.3652 14.8276 17.3652 14.7483C17.3652 14.6688 17.3539 14.6502 17.3068 14.6502C17.2639 14.6502 17.2483 14.6315 17.2483 14.5802C17.2483 14.5288 17.2328 14.5102 17.19 14.5102C17.1512 14.5102 17.1318 14.4914 17.1318 14.4541C17.1318 14.4168 17.1123 14.398 17.0733 14.398C17.0344 14.398 17.015 14.3794 17.015 14.3421C17.015 14.3047 16.9956 14.286 16.9566 14.286C16.9177 14.286 16.8983 14.2673 16.8983 14.2299C16.8983 14.1926 16.8788 14.174 16.84 14.174C16.8017 14.174 16.7816 14.1553 16.7816 14.1199C16.7816 14.085 16.7581 14.0625 16.716 14.0568C16.6737 14.051 16.647 14.0254 16.641 13.9848C16.635 13.9443 16.6116 13.9218 16.5754 13.9218C16.5385 13.9218 16.5191 13.9025 16.5191 13.8657C16.5191 13.8284 16.4995 13.8098 16.4607 13.8098C16.4217 13.8098 16.4023 13.7911 16.4023 13.7537C16.4023 13.7164 16.3829 13.6978 16.344 13.6978C16.295 13.6978 16.2856 13.679 16.2856 13.5824C16.2856 13.5217 16.3395 13.475 16.3997 13.4836L16.4169 13.4861C16.5434 13.5043 16.5482 13.5024 16.5482 13.4333C16.5482 13.3802 16.5633 13.3616 16.6065 13.3616C16.6455 13.3616 16.6649 13.3429 16.6649 13.3055C16.6649 13.2743 16.6843 13.2495 16.7087 13.2495C16.733 13.2495 16.7524 13.2246 16.7524 13.1935C16.7524 13.1523 16.7718 13.1374 16.8253 13.1374C16.8788 13.1374 16.8983 13.1225 16.8983 13.0814C16.8983 13.044 16.9177 13.0253 16.9566 13.0253C16.9956 13.0253 17.015 13.0067 17.015 12.9693C17.015 12.932 17.0344 12.9133 17.0733 12.9133C17.1123 12.9133 17.1318 12.8947 17.1318 12.8572C17.1318 12.8106 17.1512 12.8013 17.2483 12.8013C17.3456 12.8013 17.3652 12.7918 17.3652 12.7452C17.3652 12.7078 17.3845 12.6891 17.4234 12.6891C17.4632 12.6891 17.4818 12.6705 17.4818 12.6305C17.4818 12.5963 17.505 12.5661 17.5374 12.5579C17.5679 12.5501 17.5997 12.5199 17.6077 12.4905C17.6184 12.4505 17.6484 12.437 17.7271 12.437C17.8124 12.437 17.832 12.4266 17.832 12.381C17.832 12.3399 17.8515 12.3249 17.9048 12.3249C17.9584 12.3249 17.9778 12.31 17.9778 12.269C17.9778 12.2222 17.9973 12.2129 18.0944 12.2129C18.1918 12.2129 18.2112 12.2036 18.2112 12.1568C18.2112 12.1195 18.2305 12.1009 18.2695 12.1009C18.3085 12.1009 18.3279 12.0821 18.3279 12.0448C18.3279 11.9982 18.3472 11.9887 18.4446 11.9887C18.5417 11.9887 18.5612 11.9794 18.5612 11.9328C18.5612 11.8954 18.5808 11.8767 18.6196 11.8767C18.6586 11.8767 18.678 11.8581 18.678 11.8208C18.678 11.774 18.6975 11.7647 18.7947 11.7647C18.892 11.7647 18.9114 11.7554 18.9114 11.7086C18.9114 11.662 18.9309 11.6526 19.028 11.6526C19.1243 11.6526 19.1448 11.643 19.1448 11.5982C19.1448 11.5543 19.1685 11.5421 19.2689 11.5352C19.3719 11.528 19.3942 11.516 19.4021 11.4635C19.41 11.4104 19.4295 11.4005 19.526 11.4005C19.6213 11.4005 19.6408 11.391 19.6408 11.3444C19.6408 11.2946 19.6603 11.2885 19.8157 11.2885C19.9714 11.2885 19.9911 11.2822 19.9911 11.2324C19.9911 11.1856 20.0104 11.1763 20.1076 11.1763C20.2048 11.1763 20.2243 11.167 20.2243 11.1204C20.2243 11.0706 20.2438 11.0643 20.3993 11.0643C20.5549 11.0643 20.5744 11.0581 20.5744 11.0084C20.5744 10.958 20.5937 10.9523 20.7639 10.9523C20.9341 10.9523 20.9536 10.9465 20.9536 10.8962C20.9536 10.8431 20.9731 10.8402 21.3183 10.8402C21.6637 10.8402 21.6831 10.8372 21.6831 10.7842C21.6831 10.7321 21.7026 10.7281 21.9602 10.7281C22.218 10.7281 22.2375 10.7242 22.2375 10.6721C22.2375 10.6207 22.257 10.6161 22.4779 10.6156C22.7568 10.6152 22.85 10.597 22.85 10.5428C22.85 10.5121 22.9188 10.504 23.1818 10.504C23.5607 10.504 23.6962 10.485 23.6962 10.4317C23.6962 10.3801 24.4801 10.3643 25.8623 10.3881ZM26.2052 13.3055C26.2052 13.3584 26.2245 13.3616 26.5553 13.3616H26.8366C26.8747 13.3616 26.9054 13.3923 26.9054 13.4303C26.9054 13.4674 26.9368 13.4967 26.9738 13.4942L27.1533 13.482L27.3255 13.4704C27.3666 13.4676 27.4015 13.5001 27.4015 13.5411C27.4015 13.6153 27.4045 13.6166 27.5326 13.5982C27.7005 13.574 27.8683 13.6034 27.8683 13.6569C27.8683 13.6884 27.9113 13.6978 28.058 13.6978C28.228 13.6978 28.2475 13.7035 28.2475 13.7537C28.2475 13.7967 28.267 13.8098 28.3314 13.8098C28.4983 13.8098 28.5976 13.8424 28.5976 13.8973C28.5976 13.9396 28.6196 13.9498 28.7108 13.9498C28.7998 13.9498 28.8275 13.962 28.8395 14.0059C28.851 14.0483 28.8791 14.062 28.956 14.062C29.033 14.062 29.0613 14.0754 29.0729 14.1179C29.085 14.1625 29.1127 14.174 29.2075 14.174C29.3075 14.174 29.327 14.183 29.327 14.2299C29.327 14.2767 29.3464 14.286 29.4437 14.286C29.5409 14.286 29.5604 14.2953 29.5604 14.3421C29.5604 14.3887 29.5798 14.398 29.6769 14.398C29.7743 14.398 29.7938 14.4073 29.7938 14.4541C29.7938 14.4951 29.8132 14.5102 29.8666 14.5102C29.9203 14.5102 29.9396 14.5251 29.9396 14.5661C29.9396 14.6115 29.9591 14.6222 30.0419 14.6222C30.1242 14.6222 30.1437 14.6328 30.1437 14.6782C30.1437 14.7193 30.1633 14.7342 30.2169 14.7342C30.2702 14.7342 30.2897 14.7492 30.2897 14.7903C30.2897 14.8356 30.3092 14.8463 30.3918 14.8463C30.4733 14.8463 30.494 14.8573 30.494 14.9003C30.494 14.9352 30.5175 14.9577 30.5596 14.9634C30.6017 14.9692 30.6286 14.9949 30.6347 15.0355C30.6421 15.0862 30.6626 15.0984 30.7405 15.0984C30.8127 15.0984 30.8411 15.1126 30.8527 15.1545C30.8618 15.1879 30.8923 15.2104 30.929 15.2104C30.9704 15.2104 30.9899 15.2284 30.9899 15.2665C30.9899 15.3038 31.0094 15.3226 31.0482 15.3226C31.0873 15.3226 31.1068 15.3413 31.1068 15.3786C31.1068 15.416 31.1261 15.4346 31.165 15.4346C31.2038 15.4346 31.2233 15.4533 31.2233 15.4907C31.2233 15.528 31.2428 15.5467 31.2817 15.5467C31.3302 15.5467 31.34 15.5653 31.34 15.6587C31.34 15.7206 31.2898 15.7708 31.2279 15.7708H31.2233C31.1261 15.7708 31.1068 15.7802 31.1068 15.8268C31.1068 15.8642 31.0873 15.8829 31.0482 15.8829C31.0094 15.8829 30.9899 15.9015 30.9899 15.939C30.9899 15.9763 30.9704 15.9949 30.9316 15.9949C30.8927 15.9949 30.8732 16.0135 30.8732 16.051C30.8732 16.0883 30.8537 16.1069 30.8149 16.1069C30.776 16.1069 30.7565 16.1257 30.7565 16.163C30.7565 16.2003 30.737 16.2191 30.6982 16.2191C30.66 16.2191 30.64 16.2377 30.64 16.2732C30.64 16.3079 30.6165 16.3304 30.5742 16.3361C30.5319 16.3419 30.5052 16.3677 30.4992 16.4081C30.4942 16.4428 30.4727 16.4711 30.4515 16.4711C30.4304 16.4711 30.4064 16.4964 30.398 16.5272C30.3896 16.5581 30.3634 16.5832 30.3397 16.5832C30.3159 16.5832 30.2897 16.6084 30.2813 16.6393C30.2722 16.6727 30.2416 16.6953 30.2049 16.6953C30.1634 16.6953 30.1437 16.7131 30.1437 16.7514C30.1437 16.7887 30.1242 16.8073 30.0856 16.8073C30.0467 16.8073 30.0272 16.826 30.0272 16.8633C30.0272 16.9099 30.0077 16.9194 29.9105 16.9194C29.8132 16.9194 29.7938 16.9099 29.7938 16.8633C29.7938 16.826 29.7743 16.8073 29.7353 16.8073C29.6965 16.8073 29.6769 16.7887 29.6769 16.7514C29.6769 16.7139 29.6576 16.6953 29.6188 16.6953C29.5811 16.6953 29.5604 16.6766 29.5604 16.6428C29.5604 16.6033 29.5316 16.5861 29.4437 16.5726C29.368 16.5609 29.327 16.5398 29.327 16.5128C29.327 16.4898 29.3015 16.4711 29.2706 16.4711C29.2345 16.4711 29.211 16.4486 29.2048 16.4081C29.199 16.3677 29.1724 16.3419 29.1301 16.3361C29.0878 16.3304 29.0643 16.3079 29.0643 16.2732C29.0643 16.2287 29.0435 16.2191 28.9477 16.2191C28.8505 16.2191 28.8309 16.2098 28.8309 16.163C28.8309 16.1163 28.8114 16.1069 28.7143 16.1069C28.6169 16.1069 28.5976 16.0976 28.5976 16.051C28.5976 16.0135 28.5781 15.9949 28.5392 15.9949C28.5004 15.9949 28.4809 15.9763 28.4809 15.939C28.4809 15.8922 28.4614 15.8829 28.364 15.8829C28.267 15.8829 28.2475 15.8736 28.2475 15.8268C28.2475 15.7754 28.228 15.7708 28.0141 15.7708C27.8002 15.7708 27.7807 15.7661 27.7807 15.7148C27.7807 15.6644 27.7612 15.6587 27.5912 15.6587C27.4208 15.6587 27.4015 15.653 27.4015 15.6027C27.4015 15.553 27.382 15.5467 27.2263 15.5467C27.0709 15.5467 27.0512 15.5405 27.0512 15.4907C27.0512 15.4404 27.0317 15.4346 26.8617 15.4346C26.6913 15.4346 26.672 15.4289 26.672 15.3786C26.672 15.3268 26.6525 15.3226 26.4131 15.3226C26.0904 15.3226 25.9805 15.3024 25.9637 15.2397C25.9423 15.1611 23.7265 15.1577 23.7053 15.2361C23.6879 15.2997 23.5839 15.3226 23.3133 15.3226C23.132 15.3226 23.1125 15.3281 23.1125 15.3786C23.1125 15.4289 23.0932 15.4346 22.923 15.4346C22.7528 15.4346 22.7333 15.4404 22.7333 15.4907C22.7333 15.5421 22.7138 15.5467 22.5 15.5467C22.2859 15.5467 22.2665 15.5514 22.2665 15.6027C22.2665 15.6525 22.247 15.6587 22.0915 15.6587C21.936 15.6587 21.9164 15.665 21.9164 15.7148C21.9164 15.7664 21.8971 15.7708 21.6684 15.7708C21.4399 15.7708 21.4204 15.7751 21.4204 15.8268C21.4204 15.8736 21.401 15.8829 21.3039 15.8829C21.2065 15.8829 21.187 15.8922 21.187 15.939C21.187 15.9856 21.1675 15.9949 21.0703 15.9949C20.9731 15.9949 20.9536 16.0042 20.9536 16.051C20.9536 16.0883 20.9341 16.1069 20.8952 16.1069C20.8564 16.1069 20.8371 16.1257 20.8371 16.163C20.8371 16.2095 20.8176 16.2191 20.7223 16.2191C20.6256 16.2191 20.6063 16.2288 20.5983 16.2821C20.5923 16.3225 20.5656 16.3483 20.5233 16.3541C20.4872 16.3589 20.4577 16.3809 20.4577 16.4027C20.4577 16.4275 20.4135 16.4493 20.3408 16.4604C20.2531 16.474 20.2243 16.4912 20.2243 16.5307C20.2243 16.5645 20.2036 16.5832 20.166 16.5832C20.1271 16.5832 20.1076 16.6019 20.1076 16.6393C20.1076 16.6766 20.0881 16.6953 20.0492 16.6953C20.0104 16.6953 19.9911 16.7139 19.9911 16.7514C19.9911 16.7887 19.9714 16.8073 19.9324 16.8073C19.8937 16.8073 19.874 16.826 19.874 16.8633C19.874 16.9131 19.8547 16.9194 19.6992 16.9194C19.5409 16.9194 19.5243 16.9138 19.5243 16.8608C19.5243 16.8257 19.5007 16.7963 19.4658 16.7873C19.4337 16.7794 19.4072 16.7542 19.4072 16.7315C19.4072 16.7087 19.3811 16.6833 19.3489 16.6754C19.3168 16.6673 19.2907 16.6421 19.2907 16.6193C19.2907 16.5965 19.2644 16.5714 19.2324 16.5633C19.2003 16.5553 19.174 16.53 19.174 16.5072C19.174 16.4846 19.1477 16.4593 19.1155 16.4513C19.0834 16.4433 19.0575 16.418 19.0575 16.3952C19.0575 16.3724 19.0322 16.3476 19.0016 16.3398C18.9709 16.3323 18.9395 16.3019 18.9313 16.2725C18.9229 16.2413 18.8913 16.2191 18.8558 16.2191C18.814 16.2191 18.7947 16.2012 18.7947 16.163C18.7947 16.1257 18.7753 16.1069 18.7363 16.1069C18.6877 16.1069 18.678 16.0883 18.678 15.9949C18.678 15.9015 18.6684 15.8829 18.6196 15.8829C18.5808 15.8829 18.5612 15.8642 18.5612 15.8268C18.5612 15.7858 18.5417 15.7708 18.4883 15.7708C18.4348 15.7708 18.4153 15.7558 18.4153 15.7148C18.4153 15.6837 18.396 15.6587 18.3716 15.6587C18.3472 15.6587 18.3279 15.6339 18.3279 15.6027C18.3279 15.5653 18.3472 15.5467 18.3864 15.5467C18.4252 15.5467 18.4446 15.528 18.4446 15.4907C18.4446 15.4533 18.4641 15.4346 18.5029 15.4346C18.5417 15.4346 18.5612 15.416 18.5612 15.3786C18.5612 15.3413 18.5808 15.3226 18.6196 15.3226C18.6586 15.3226 18.678 15.3038 18.678 15.2665C18.678 15.2292 18.6975 15.2104 18.7363 15.2104C18.7753 15.2104 18.7947 15.1918 18.7947 15.1545C18.7947 15.1171 18.814 15.0984 18.8532 15.0984C18.8909 15.0984 18.9114 15.0798 18.9114 15.0449C18.9114 15.0045 18.9393 14.9868 19.0252 14.9728C19.1033 14.9601 19.1438 14.9373 19.1538 14.9003C19.1624 14.8686 19.194 14.8463 19.2296 14.8463C19.2712 14.8463 19.2907 14.8285 19.2907 14.7903C19.2907 14.7436 19.3102 14.7342 19.4072 14.7342C19.5046 14.7342 19.5243 14.7249 19.5243 14.6782C19.5243 14.6409 19.5436 14.6222 19.5823 14.6222C19.6213 14.6222 19.6408 14.6036 19.6408 14.5661C19.6408 14.5195 19.6603 14.5102 19.7575 14.5102C19.8547 14.5102 19.874 14.5007 19.874 14.4541C19.874 14.4073 19.8937 14.398 19.9911 14.398C20.0864 14.398 20.1076 14.3883 20.1076 14.3445C20.1076 14.3038 20.1357 14.2864 20.2243 14.2719C20.2959 14.2603 20.3408 14.2378 20.3408 14.2136C20.3408 14.1859 20.377 14.174 20.4605 14.174C20.5553 14.174 20.583 14.1625 20.5951 14.1179C20.6072 14.074 20.6348 14.062 20.7237 14.062C20.8176 14.062 20.8371 14.0524 20.8371 14.0059C20.8371 13.9591 20.8564 13.9498 20.9536 13.9498C21.051 13.9498 21.0703 13.9405 21.0703 13.8939C21.0703 13.8514 21.09 13.8378 21.1505 13.8375C21.3064 13.8369 21.4497 13.8023 21.4497 13.7653C21.4497 13.7196 21.6026 13.6899 21.7735 13.7024C21.8893 13.7108 21.9027 13.7052 21.9116 13.646C21.9209 13.5813 21.9253 13.5806 22.1522 13.5998L22.3072 13.613C22.3481 13.6165 22.3832 13.5843 22.3832 13.5433C22.3832 13.5022 22.4183 13.4698 22.4593 13.4731L22.6311 13.4868L22.807 13.5008C22.8459 13.5039 22.8793 13.4732 22.8793 13.4341C22.8793 13.394 22.9119 13.3616 22.9519 13.3616H23.2294C23.56 13.3616 23.5793 13.3584 23.5793 13.3055C23.5793 13.2503 23.5988 13.2495 24.8923 13.2495C26.1857 13.2495 26.2052 13.2503 26.2052 13.3055ZM25.7603 16.1246C25.7963 16.1339 25.8258 16.159 25.8258 16.1802C25.8258 16.2098 25.8774 16.2191 26.0411 16.2191C26.3333 16.2191 26.43 16.2406 26.4489 16.3102C26.4631 16.362 26.4796 16.3655 26.6292 16.3486C26.7764 16.332 26.7955 16.3358 26.8085 16.384C26.8266 16.45 26.8987 16.4702 27.1168 16.4708C27.2651 16.4711 27.2846 16.4777 27.2846 16.5272C27.2846 16.5739 27.3041 16.5832 27.4015 16.5832C27.4985 16.5832 27.518 16.5927 27.518 16.6393C27.518 16.686 27.5377 16.6953 27.6349 16.6953C27.7321 16.6953 27.7514 16.7046 27.7514 16.7514C27.7514 16.799 27.7709 16.8073 27.8829 16.8073C27.9946 16.8073 28.0141 16.8157 28.0141 16.8633C28.0141 16.9099 28.0336 16.9194 28.1308 16.9194C28.228 16.9194 28.2475 16.9288 28.2475 16.9754C28.2475 17.0222 28.267 17.0315 28.364 17.0315C28.4614 17.0315 28.4809 17.0408 28.4809 17.0874C28.4809 17.1249 28.5004 17.1435 28.5392 17.1435C28.5781 17.1435 28.5976 17.1622 28.5976 17.1997C28.5976 17.2368 28.6169 17.2556 28.6561 17.2556C28.6949 17.2556 28.7143 17.2742 28.7143 17.3116C28.7143 17.3483 28.7336 17.3675 28.7705 17.3675C28.8066 17.3675 28.8303 17.3901 28.8363 17.4307C28.8437 17.4808 28.867 17.4953 28.9519 17.5023C29.0283 17.5084 29.0627 17.5261 29.0732 17.5653C29.0823 17.598 29.1132 17.6199 29.1513 17.6199C29.2371 17.6199 29.218 17.7147 29.1297 17.7266C29.0878 17.7324 29.0643 17.7551 29.0643 17.7898C29.0643 17.8253 29.0443 17.8439 29.006 17.8439C28.9672 17.8439 28.9477 17.8626 28.9477 17.8999C28.9477 17.9373 28.9283 17.956 28.8893 17.956C28.8505 17.956 28.8309 17.9746 28.8309 18.012C28.8309 18.0493 28.8114 18.0679 28.7728 18.0679C28.7336 18.0679 28.7143 18.0868 28.7143 18.124C28.7143 18.1613 28.6949 18.1802 28.6561 18.1802C28.6073 18.1802 28.5976 18.1988 28.5976 18.2922C28.5976 18.3855 28.588 18.404 28.5392 18.404C28.5004 18.404 28.4809 18.4229 28.4809 18.4604C28.4809 18.4975 28.4614 18.5162 28.4225 18.5162C28.3837 18.5162 28.364 18.5348 28.364 18.5722C28.364 18.6097 28.3446 18.6284 28.3058 18.6284C28.267 18.6284 28.2475 18.6471 28.2475 18.6842C28.2475 18.7217 28.228 18.7404 28.1893 18.7404C28.1493 18.7404 28.1308 18.7591 28.1308 18.799C28.1308 18.8331 28.1075 18.8634 28.075 18.8716C28.0445 18.8795 28.0131 18.9096 28.0048 18.939C27.9831 19.0195 27.6349 19.0193 27.6349 18.9388C27.6349 18.8984 27.6066 18.8807 27.518 18.8664C27.4294 18.852 27.4015 18.8347 27.4015 18.7938C27.4015 18.7591 27.3811 18.7404 27.3429 18.7404C27.3041 18.7404 27.2846 18.7217 27.2846 18.6842C27.2846 18.6377 27.2653 18.6284 27.1681 18.6284C27.0709 18.6284 27.0512 18.6189 27.0512 18.5722C27.0512 18.5255 27.0317 18.5162 26.9347 18.5162C26.8373 18.5162 26.8178 18.5069 26.8178 18.4604C26.8178 18.4103 26.7985 18.404 26.6428 18.404C26.4872 18.404 26.4679 18.3981 26.4679 18.348C26.4679 18.298 26.4484 18.2922 26.2783 18.2922C26.1079 18.2922 26.0885 18.2864 26.0885 18.236C26.0885 18.1848 26.0692 18.1802 25.8552 18.1802C25.6411 18.1802 25.6217 18.1755 25.6217 18.124C25.6217 18.0694 25.6024 18.0679 24.8339 18.0679C24.0656 18.0679 24.0461 18.0694 24.0461 18.124C24.0461 18.1755 24.0268 18.1802 23.8129 18.1802C23.5988 18.1802 23.5793 18.1848 23.5793 18.236C23.5793 18.2859 23.56 18.2922 23.4043 18.2922C23.2489 18.2922 23.2294 18.2983 23.2294 18.348C23.2294 18.3958 23.2099 18.404 23.0981 18.404C22.9862 18.404 22.9668 18.4126 22.9668 18.4604C22.9668 18.5069 22.9472 18.5162 22.85 18.5162C22.7528 18.5162 22.7333 18.5255 22.7333 18.5722C22.7333 18.6189 22.7138 18.6284 22.6167 18.6284C22.5213 18.6284 22.5 18.638 22.5 18.6819C22.5 18.7224 22.4718 18.74 22.3832 18.7544C22.2945 18.7689 22.2665 18.7862 22.2665 18.827C22.2665 18.8617 22.2463 18.8804 22.208 18.8804C22.1694 18.8804 22.1499 18.8991 22.1499 18.9366C22.1499 18.9775 22.1305 18.9926 22.0769 18.9926C22.0234 18.9926 22.0039 19.0074 22.0039 19.0484C22.0039 19.0797 21.9845 19.1046 21.9602 19.1046C21.936 19.1046 21.9164 19.0797 21.9164 19.0484C21.9164 19.0102 21.8971 18.9926 21.8553 18.9926C21.8188 18.9926 21.7881 18.9701 21.779 18.9366C21.7707 18.9056 21.7465 18.8804 21.7256 18.8804C21.7042 18.8804 21.683 18.852 21.6779 18.8174C21.6717 18.7768 21.6449 18.7511 21.6029 18.7453C21.5606 18.7397 21.5371 18.7171 21.5371 18.6825C21.5371 18.6471 21.5169 18.6284 21.4789 18.6284C21.4399 18.6284 21.4204 18.6097 21.4204 18.5722C21.4204 18.5348 21.401 18.5162 21.362 18.5162C21.3232 18.5162 21.3039 18.4975 21.3039 18.4604C21.3039 18.4229 21.2844 18.404 21.2455 18.404C21.2065 18.404 21.187 18.3855 21.187 18.348C21.187 18.3108 21.1675 18.2922 21.1286 18.2922C21.0898 18.2922 21.0703 18.2737 21.0703 18.236C21.0703 18.1988 21.051 18.1802 21.0121 18.1802C20.9731 18.1802 20.9536 18.1613 20.9536 18.124C20.9536 18.0868 20.9341 18.0679 20.8952 18.0679C20.8564 18.0679 20.8371 18.0493 20.8371 18.012C20.8371 17.9746 20.8176 17.956 20.7787 17.956C20.7397 17.956 20.7204 17.9373 20.7204 17.8999C20.7204 17.8626 20.7007 17.8439 20.6618 17.8439C20.6221 17.8439 20.6035 17.8253 20.6035 17.7852C20.6035 17.7502 20.58 17.7208 20.5453 17.7119C20.4368 17.6846 20.478 17.6199 20.6035 17.6199C20.7007 17.6199 20.7204 17.6104 20.7204 17.5637C20.7204 17.5264 20.7397 17.5077 20.7787 17.5077C20.8215 17.5077 20.8371 17.4891 20.8371 17.4378C20.8371 17.3864 20.8525 17.3675 20.8952 17.3675C20.9341 17.3675 20.9536 17.349 20.9536 17.3116C20.9536 17.2649 20.9731 17.2556 21.0703 17.2556C21.1675 17.2556 21.187 17.2463 21.187 17.1997C21.187 17.1622 21.2065 17.1435 21.2455 17.1435C21.2844 17.1435 21.3039 17.1249 21.3039 17.0874C21.3039 17.0408 21.3232 17.0315 21.4204 17.0315C21.5177 17.0315 21.5371 17.0222 21.5371 16.9754C21.5371 16.9288 21.5566 16.9194 21.6538 16.9194C21.7512 16.9194 21.7707 16.9099 21.7707 16.8633C21.7707 16.8157 21.79 16.8073 21.902 16.8073C22.0136 16.8073 22.0332 16.799 22.0332 16.7514C22.0332 16.7046 22.0525 16.6953 22.1499 16.6953C22.247 16.6953 22.2665 16.686 22.2665 16.6393C22.2665 16.5927 22.2859 16.5832 22.3832 16.5832C22.4804 16.5832 22.5 16.5739 22.5 16.5272C22.5 16.4774 22.5194 16.4711 22.675 16.4711C22.8307 16.4711 22.85 16.4649 22.85 16.4152C22.85 16.3551 22.8659 16.3518 23.1711 16.3473C23.3143 16.3453 23.3326 16.3384 23.3406 16.2821C23.3494 16.2228 23.3636 16.2191 23.5816 16.2191C23.7627 16.2191 23.8129 16.2103 23.8129 16.1789C23.8129 16.157 23.8422 16.1335 23.8783 16.1267C23.9815 16.1076 25.6869 16.1058 25.7603 16.1246ZM25.359 19.3837C25.359 19.433 25.3832 19.4392 25.5999 19.4467C25.8277 19.4542 25.841 19.4582 25.8503 19.5209C25.8586 19.5776 25.8719 19.5846 25.9451 19.5706C26.0583 19.5487 26.2052 19.579 26.2052 19.624C26.2052 19.6439 26.2557 19.6681 26.3191 19.6782C26.397 19.6912 26.4373 19.7139 26.4475 19.7508C26.4588 19.7916 26.4881 19.8049 26.5672 19.8049C26.6525 19.8049 26.672 19.8154 26.672 19.8609C26.672 19.8973 26.6913 19.9171 26.7269 19.9171C26.7574 19.9171 26.7889 19.9421 26.7971 19.9731C26.8087 20.0154 26.8369 20.0289 26.9138 20.0289C26.9907 20.0289 27.0189 20.0427 27.0305 20.0851C27.0396 20.1185 27.0703 20.1411 27.107 20.1411C27.1484 20.1411 27.1681 20.1589 27.1681 20.1971C27.1681 20.2345 27.1876 20.2533 27.2263 20.2533C27.2653 20.2533 27.2846 20.2718 27.2846 20.3091C27.2846 20.3465 27.3041 20.3651 27.3429 20.3651C27.382 20.3651 27.4015 20.384 27.4015 20.4214C27.4015 20.468 27.4208 20.4773 27.518 20.4773H27.5228C27.5847 20.4773 27.6349 20.5275 27.6349 20.5893C27.6349 20.6825 27.6445 20.7014 27.6932 20.7014C27.7321 20.7014 27.7514 20.7202 27.7514 20.7574C27.7514 20.7949 27.7709 20.8134 27.8097 20.8134C27.8595 20.8134 27.8683 20.8322 27.8683 20.9396C27.8683 21.0469 27.8769 21.0656 27.9267 21.0656C27.9752 21.0656 27.9848 21.0843 27.9848 21.1776C27.9848 21.2711 27.9946 21.2896 28.0433 21.2896C28.0896 21.2896 28.1017 21.3085 28.102 21.3808C28.1026 21.5206 28.1308 21.5913 28.1919 21.6067C28.2389 21.6184 28.2475 21.647 28.2475 21.7915C28.2475 21.9432 28.2538 21.9621 28.3058 21.9621C28.3626 21.9621 28.364 21.9807 28.364 22.7045C28.364 23.4221 28.3623 23.4468 28.3072 23.4468C28.2579 23.4468 28.2491 23.4699 28.2416 23.622C28.2337 23.7818 28.2268 23.7977 28.164 23.8065C28.1049 23.8145 28.0977 23.8271 28.1124 23.8976C28.1389 24.0254 28.1034 24.1474 28.0397 24.1474C27.9952 24.1474 27.9848 24.1684 27.9848 24.2592C27.9848 24.3526 27.9752 24.3714 27.9267 24.3714C27.8832 24.3714 27.8683 24.3901 27.8683 24.4438C27.8683 24.5129 27.8627 24.5154 27.7514 24.4974C27.6424 24.4797 27.6351 24.4828 27.638 24.5439C27.6407 24.5913 27.6452 24.5961 27.6549 24.5605C27.68 24.4685 27.7514 24.5047 27.7514 24.6094C27.7514 24.6888 27.7404 24.7075 27.6932 24.7075C27.6544 24.7075 27.6349 24.7263 27.6349 24.7635C27.6349 24.801 27.6152 24.8197 27.5765 24.8197C27.5335 24.8197 27.518 24.8383 27.518 24.8897C27.518 24.941 27.5024 24.9597 27.4599 24.9597C27.4208 24.9597 27.4015 24.9783 27.4015 25.0157C27.4015 25.053 27.382 25.0715 27.3429 25.0715C27.3041 25.0715 27.2846 25.0904 27.2846 25.1279C27.2846 25.1652 27.2653 25.1839 27.2263 25.1839C27.1876 25.1839 27.1681 25.2024 27.1681 25.2397C27.1681 25.2875 27.1484 25.2959 27.0368 25.2959C26.9249 25.2959 26.9054 25.3043 26.9054 25.3519C26.9054 25.3984 26.8859 25.4079 26.7889 25.4079C26.6913 25.4079 26.672 25.4172 26.672 25.4641C26.672 25.5013 26.6525 25.5199 26.6137 25.5199C26.5748 25.5199 26.5553 25.5386 26.5553 25.5759C26.5553 25.6228 26.536 25.6321 26.4386 25.6321C26.3415 25.6321 26.322 25.6415 26.322 25.6881C26.322 25.7378 26.3024 25.744 26.1469 25.744C25.9912 25.744 25.9718 25.7502 25.9718 25.8002C25.9718 25.8503 25.9523 25.8561 25.7821 25.8561C25.612 25.8561 25.5925 25.8618 25.5925 25.9121C25.5925 25.9667 25.5729 25.9682 24.8339 25.9682C24.0951 25.9682 24.0754 25.9667 24.0754 25.9121C24.0754 25.8618 24.0559 25.8561 23.8859 25.8561C23.7157 25.8561 23.6962 25.8503 23.6962 25.8002C23.6962 25.7533 23.6767 25.744 23.5793 25.744C23.4823 25.744 23.4628 25.7348 23.4628 25.6881C23.4628 25.6415 23.4433 25.6321 23.3461 25.6321C23.2489 25.6321 23.2294 25.6228 23.2294 25.5759C23.2294 25.5292 23.2099 25.5199 23.1125 25.5199C23.0155 25.5199 22.996 25.5106 22.996 25.4641C22.996 25.4228 22.9765 25.4079 22.923 25.4079C22.8696 25.4079 22.85 25.3928 22.85 25.3519C22.85 25.3051 22.8307 25.2959 22.7333 25.2959C22.6362 25.2959 22.6167 25.2866 22.6167 25.2397C22.6167 25.1932 22.5973 25.1839 22.5 25.1839C22.4028 25.1839 22.3832 25.1746 22.3832 25.1279C22.3832 25.0904 22.3639 25.0715 22.3249 25.0715C22.2821 25.0715 22.2665 25.053 22.2665 25.0017C22.2665 24.9504 22.251 24.9315 22.208 24.9315C22.161 24.9315 22.1499 24.913 22.1499 24.8335C22.1499 24.7542 22.1385 24.7355 22.0915 24.7355C22.0487 24.7355 22.0332 24.7168 22.0332 24.6655C22.0332 24.6141 22.0174 24.5954 21.9748 24.5954C21.926 24.5954 21.9164 24.5768 21.9164 24.4835C21.9164 24.3901 21.9067 24.3714 21.8581 24.3714C21.8065 24.3714 21.7991 24.3512 21.7956 24.1962C21.7937 24.0998 21.7862 24.0495 21.7791 24.0844C21.7567 24.1967 21.6831 24.1593 21.6831 24.0352C21.6831 23.9417 21.6733 23.9232 21.6247 23.9232C21.5699 23.9232 21.5664 23.9043 21.5664 23.6288C21.5664 23.36 21.5617 23.3348 21.5117 23.3348C21.4332 23.3348 21.4204 23.2384 21.4204 22.6483C21.4204 22.0572 21.4331 21.9621 21.5122 21.9621C21.5578 21.9621 21.5663 21.9436 21.561 21.857C21.548 21.6436 21.5652 21.5138 21.6065 21.5138C21.6482 21.5138 21.6831 21.3972 21.6831 21.2581C21.6831 21.1963 21.6965 21.1776 21.7412 21.1776C21.79 21.1776 21.7997 21.1589 21.7997 21.0656C21.7997 20.9722 21.8095 20.9534 21.8581 20.9534C21.9064 20.9534 21.9164 20.9349 21.9164 20.8448C21.9164 20.7595 21.9292 20.7328 21.9748 20.7212C22.0097 20.7125 22.0332 20.6831 22.0332 20.6481C22.0332 20.6082 22.0518 20.5893 22.0915 20.5893C22.1305 20.5893 22.1499 20.5707 22.1499 20.5333C22.1499 20.4865 22.1694 20.4773 22.2665 20.4773C22.3639 20.4773 22.3832 20.468 22.3832 20.4214C22.3832 20.384 22.4028 20.3651 22.4416 20.3651C22.4804 20.3651 22.5 20.3465 22.5 20.3091C22.5 20.2718 22.5193 20.2533 22.5583 20.2533C22.5973 20.2533 22.6167 20.2345 22.6167 20.1971C22.6167 20.1598 22.6362 20.1411 22.675 20.1411C22.7138 20.1411 22.7333 20.1224 22.7333 20.0851C22.7333 20.044 22.7528 20.0289 22.8063 20.0289C22.8586 20.0289 22.8793 20.014 22.8793 19.9755C22.8793 19.9348 22.9074 19.9174 22.996 19.9031C23.0634 19.8921 23.1125 19.8684 23.1125 19.8469C23.1125 19.8256 23.162 19.8019 23.2294 19.7909C23.3178 19.7766 23.3461 19.7592 23.3461 19.7185C23.3461 19.6745 23.3673 19.6649 23.4628 19.6649C23.56 19.6649 23.5793 19.6555 23.5793 19.6087C23.5793 19.5622 23.5988 19.5527 23.6962 19.5527C23.7932 19.5527 23.8129 19.5435 23.8129 19.4967C23.8129 19.4451 23.8324 19.4409 24.0609 19.4409C24.2895 19.4409 24.3088 19.4364 24.3088 19.3846C24.3088 19.3308 24.3283 19.3286 24.8339 19.3286C25.3361 19.3286 25.359 19.3312 25.359 19.3837ZM25.9718 38.7289C25.9718 38.8351 25.9628 38.8551 25.9153 38.8551C25.8377 38.8551 25.8198 38.8172 25.8424 38.7014C25.8735 38.5427 25.9718 38.5635 25.9718 38.7289Z" fill="white"></path><path d="M86.2446 37.6067H70.9688V13.9629H86.2446V18.2981H75.7166V23.7005H85.2468V27.8023H75.7166V33.2714H86.2446V37.6067ZM89.1373 33.038L93.0595 32.2043C93.1053 32.9158 93.392 33.5161 93.9195 34.0052C94.4701 34.4719 95.2154 34.7054 96.1558 34.7054C96.8669 34.7054 97.4174 34.5498 97.8073 34.2387C98.1973 33.9273 98.3921 33.5383 98.3921 33.0714C98.3921 32.2487 97.7844 31.7152 96.5687 31.4707L94.3323 30.9705C92.7497 30.637 91.5571 30.0367 90.7542 29.1696C89.9743 28.3027 89.5846 27.2688 89.5846 26.0683C89.5846 24.5787 90.1809 23.3115 91.3735 22.2666C92.5891 21.2216 94.1031 20.6993 95.915 20.6993C97.0619 20.6993 98.0711 20.866 98.9426 21.1994C99.8143 21.5107 100.491 21.922 100.972 22.4333C101.454 22.9225 101.821 23.4226 102.074 23.934C102.326 24.4453 102.486 24.9456 102.555 25.4346L98.7362 26.2683C98.6444 25.6903 98.3693 25.1791 97.9105 24.7344C97.4746 24.2897 96.8209 24.0673 95.9494 24.0673C95.3531 24.0673 94.837 24.2231 94.4013 24.5342C93.9883 24.8455 93.782 25.2346 93.782 25.7015C93.782 26.5017 94.2979 26.9909 95.3301 27.1688L97.7386 27.669C99.3669 28.0025 100.606 28.6138 101.454 29.5032C102.326 30.3923 102.762 31.4595 102.762 32.7046C102.762 34.1718 102.188 35.4392 101.041 36.5063C99.8945 37.5735 98.2775 38.107 96.1902 38.107C94.9976 38.107 93.9309 37.9403 92.9907 37.6067C92.0502 37.2509 91.3161 36.8064 90.7886 36.2729C90.2841 35.7171 89.8941 35.1723 89.619 34.6387C89.3666 34.0829 89.206 33.5493 89.1373 33.038ZM110.915 32.838C111.764 33.6605 112.784 34.0719 113.977 34.0719C115.17 34.0719 116.179 33.6605 117.005 32.838C117.853 32.0153 118.278 30.8704 118.278 29.4031C118.278 27.9359 117.853 26.7908 117.005 25.9682C116.179 25.1457 115.17 24.7344 113.977 24.7344C112.784 24.7344 111.764 25.1457 110.915 25.9682C110.089 26.7908 109.676 27.9359 109.676 29.4031C109.676 30.8704 110.089 32.0153 110.915 32.838ZM107.612 23.1669C109.309 21.5218 111.431 20.6993 113.977 20.6993C116.523 20.6993 118.633 21.5218 120.308 23.1669C122.005 24.8121 122.854 26.8909 122.854 29.4031C122.854 31.9154 122.005 33.994 120.308 35.6392C118.633 37.2844 116.523 38.107 113.977 38.107C111.431 38.107 109.309 37.2844 107.612 35.6392C105.938 33.994 105.101 31.9154 105.101 29.4031C105.101 26.8909 105.938 24.8121 107.612 23.1669ZM134.069 24.8011C132.854 24.8011 131.833 25.2123 131.007 26.035C130.181 26.8575 129.769 27.9803 129.769 29.4031C129.769 30.826 130.181 31.9598 131.007 32.8045C131.856 33.6272 132.888 34.0385 134.104 34.0385C135.182 34.0385 136.042 33.7718 136.684 33.2382C137.326 32.6824 137.762 32.0265 137.991 31.2707L142.017 32.5711C141.604 34.0829 140.709 35.3835 139.333 36.4729C137.957 37.5623 136.214 38.107 134.104 38.107C131.581 38.107 129.459 37.2844 127.739 35.6392C126.041 33.9718 125.193 31.8931 125.193 29.4031C125.193 26.8909 126.03 24.8121 127.704 23.1669C129.402 21.5218 131.489 20.6993 133.966 20.6993C136.122 20.6993 137.888 21.2439 139.264 22.3332C140.64 23.4004 141.524 24.701 141.913 26.235L137.819 27.5689C137.269 25.7237 136.019 24.8011 134.069 24.8011ZM149.958 37.6067H145.382V21.1994H149.958V37.6067ZM144.831 15.8304C144.831 15.0745 145.107 14.4298 145.657 13.8962C146.208 13.3404 146.873 13.0625 147.653 13.0625C148.432 13.0625 149.098 13.3293 149.648 13.8629C150.198 14.3964 150.474 15.0523 150.474 15.8304C150.474 16.5641 150.198 17.1977 149.648 17.7313C149.098 18.2648 148.432 18.5315 147.653 18.5315C146.873 18.5315 146.208 18.2648 145.657 17.7313C145.107 17.1977 144.831 16.5641 144.831 15.8304ZM153.824 33.1381C153.824 31.7374 154.294 30.6148 155.235 29.7699C156.175 28.9251 157.391 28.3916 158.882 28.1691L163.045 27.5689C163.893 27.4578 164.318 27.0687 164.318 26.4018C164.318 25.7793 164.066 25.268 163.561 24.8678C163.079 24.4675 162.38 24.2675 161.462 24.2675C160.499 24.2675 159.73 24.5232 159.157 25.0345C158.607 25.5459 158.297 26.1794 158.228 26.9354L154.168 26.1017C154.329 24.6788 155.051 23.4226 156.336 22.3332C157.62 21.2439 159.318 20.6993 161.428 20.6993C163.951 20.6993 165.809 21.2883 167.001 22.4668C168.194 23.6228 168.791 25.1122 168.791 26.9354V35.0055C168.791 35.9838 168.859 36.8509 168.997 37.6067H164.8C164.685 37.1176 164.628 36.4619 164.628 35.6392C163.549 37.2621 161.887 38.0736 159.639 38.0736C157.896 38.0736 156.485 37.5845 155.407 36.6062C154.352 35.6282 153.824 34.4719 153.824 33.1381ZM160.602 34.7721C161.68 34.7721 162.563 34.4831 163.251 33.9051C163.962 33.3049 164.318 32.3266 164.318 30.9705V30.2368L160.499 30.8038C159.1 31.0038 158.4 31.6929 158.4 32.8714C158.4 33.4048 158.595 33.8607 158.985 34.2387C159.375 34.5943 159.914 34.7721 160.602 34.7721ZM177.978 37.6067H173.403V13.4627H177.978V37.6067Z" fill="#FF0000"></path></svg>